<svg xmlns="http://www.w3.org/2000/svg" width="742" height="496" viewBox="0 0 742 496">
<g>
<path d="M 0.00 0.00 L 742.00 0.00 L 742.00 496.00 L 0.00 496.00 ZM 3.01 467.50 L 3.00 494.00 L 741.00 494.00 L 741.00 2.00 L 3.00 2.00 L 3.00 175.94 C3.00,286.64 3.35,350.10 3.97,350.48 C4.50,350.81 8.43,350.40 12.72,349.56 C17.00,348.73 28.83,346.52 39.00,344.64 C83.39,336.44 86.96,335.91 87.43,334.41 C87.51,334.15 87.50,333.87 87.59,333.51 C87.96,332.02 86.77,328.51 84.08,323.16 C80.94,316.92 80.41,315.21 81.76,315.68 C83.18,316.18 83.27,316.05 82.25,314.95 C80.58,313.14 80.67,312.00 82.50,312.00 C84.05,312.00 84.35,312.91 84.05,316.69 C83.84,319.35 86.57,321.27 94.44,323.98 C97.66,325.09 100.94,326.54 101.75,327.21 C102.55,327.87 104.01,328.89 104.98,329.46 C105.96,330.03 107.73,331.09 108.91,331.80 C110.93,333.02 111.02,332.95 110.42,330.55 L 109.78 328.00 L 128.64 327.96 C161.01,327.90 163.72,327.45 183.50,318.73 C225.35,300.28 268.29,284.46 308.50,272.69 C325.41,267.74 326.02,267.90 317.46,275.00 C310.80,280.53 278.00,313.55 278.00,314.73 C278.00,315.19 283.60,321.05 290.44,327.75 C297.28,334.44 303.36,340.80 303.94,341.89 C305.63,345.05 305.18,347.65 302.64,349.32 C301.34,350.17 299.65,351.46 298.89,352.19 C297.10,353.89 285.23,361.71 277.50,366.27 L 271.50 369.81 L 239.00 370.44 C236.26,370.50 233.73,370.55 231.41,370.60 C214.31,370.97 207.94,371.11 202.56,368.86 C198.64,367.22 195.24,364.30 188.59,359.27 C183.14,355.14 177.74,351.75 176.59,351.73 C169.61,351.60 163.00,352.47 163.00,353.51 C163.00,355.40 172.85,368.89 178.46,374.68 L 183.61 380.00 L 204.56 379.98 C237.05,379.95 262.48,378.42 280.03,375.43 C288.54,373.98 298.13,372.39 301.34,371.90 C304.56,371.41 307.51,370.80 307.90,370.56 C308.29,370.32 314.44,369.18 321.56,368.04 C337.83,365.42 343.79,363.96 345.21,362.25 C346.06,361.23 345.81,359.36 344.22,354.70 C341.93,347.97 340.74,336.82 340.75,322.20 C340.76,311.01 340.00,309.81 333.44,310.58 C330.99,310.87 327.06,311.68 324.71,312.39 C320.04,313.79 316.58,312.95 315.50,310.15 C314.64,307.89 317.04,306.47 324.26,304.98 C336.44,302.47 345.80,297.52 344.54,294.25 C344.22,293.41 344.46,293.17 345.17,293.60 C345.96,294.09 346.13,293.60 345.72,292.04 C345.15,289.87 346.51,286.22 348.38,284.86 C348.86,284.51 348.90,283.65 348.47,282.96 C347.93,282.07 348.09,281.94 349.02,282.51 C349.99,283.11 350.16,282.87 349.68,281.61 C349.29,280.59 349.42,280.14 350.01,280.51 C350.56,280.84 351.00,280.62 351.00,280.01 C351.00,278.19 357.87,268.02 362.29,263.31 C364.68,260.75 369.46,257.40 373.67,255.32 C380.45,251.97 381.40,251.76 388.22,252.20 C397.41,252.79 403.01,255.71 412.12,264.68 C418.30,270.76 418.79,271.56 419.39,276.67 C419.75,279.68 420.73,283.80 421.58,285.82 C422.43,287.85 423.75,292.42 424.51,296.00 C425.73,301.73 425.70,303.51 424.24,311.00 C422.96,317.62 422.44,318.95 421.89,317.00 C420.63,312.45 420.86,318.24 422.17,323.92 C423.00,327.53 424.33,329.89 426.77,332.11 C429.39,334.50 430.08,335.81 429.71,337.73 C429.25,340.15 429.38,340.22 433.37,339.65 C435.64,339.32 440.88,337.99 445.00,336.68 C449.12,335.38 454.70,333.68 457.40,332.90 C460.95,331.89 462.88,330.62 464.40,328.31 C465.82,326.14 467.79,324.77 470.50,324.04 C472.70,323.45 476.98,322.29 480.00,321.46 C483.02,320.63 487.30,319.72 489.50,319.44 C491.70,319.16 499.12,317.77 506.00,316.34 C512.88,314.92 520.53,313.39 523.00,312.95 C525.47,312.51 531.33,311.25 536.00,310.16 C540.67,309.06 546.75,307.84 549.50,307.45 C552.25,307.05 555.62,305.96 557.00,305.02 C559.44,303.36 571.01,301.00 576.75,301.00 C578.68,301.00 580.66,299.91 582.88,297.63 C585.98,294.43 593.86,290.91 613.00,284.17 C617.98,282.42 618.53,281.93 618.82,279.01 C619.05,276.69 618.52,275.20 616.93,273.72 C614.84,271.77 614.76,271.13 615.38,261.63 C616.82,239.71 622.89,222.96 632.62,214.06 C644.20,203.48 652.46,201.51 660.26,207.47 C667.22,212.78 669.35,216.93 669.10,224.66 C668.95,229.29 669.51,232.69 671.09,236.80 C673.02,241.81 673.30,244.54 673.40,259.29 C673.47,270.51 673.14,276.31 672.40,276.79 C670.43,278.06 669.12,281.55 668.63,286.84 C668.10,292.57 665.53,297.54 660.09,303.33 C654.95,308.82 651.51,310.28 633.00,314.83 C536.20,338.62 526.15,341.02 521.00,341.67 C518.53,341.97 511.33,343.59 505.00,345.26 C498.67,346.92 488.10,349.51 481.50,351.01 C463.28,355.14 425.95,364.87 422.00,366.52 C420.08,367.32 412.88,369.52 406.00,371.40 C399.12,373.29 391.72,375.77 389.54,376.92 C387.36,378.06 384.95,379.00 384.18,379.00 C382.93,379.00 373.83,381.16 333.50,391.00 C301.83,398.74 283.48,403.07 272.50,405.41 C265.90,406.82 255.13,409.33 248.56,410.98 C241.99,412.64 235.65,414.00 234.47,414.00 C233.29,414.00 221.78,416.49 208.91,419.54 C181.59,426.00 115.20,441.41 90.00,447.12 C80.38,449.31 64.40,453.06 54.50,455.45 C44.60,457.85 28.97,461.54 19.76,463.66 ZM 279.23 243.52 C260.52,245.65 253.40,245.97 228.00,245.86 C195.15,245.71 185.09,244.68 179.57,240.92 C174.42,237.41 174.60,233.75 180.08,230.96 C183.08,229.43 184.50,229.17 185.46,229.96 C186.44,230.78 189.21,229.64 196.63,225.38 C202.06,222.26 207.62,218.93 209.00,217.98 C215.01,213.83 261.73,190.00 273.00,185.34 C290.76,178.01 294.72,177.00 309.50,176.04 C348.17,173.53 423.34,173.94 426.08,176.68 C426.77,177.37 424.73,179.58 419.80,183.50 C415.78,186.68 402.93,198.89 391.23,210.61 L 369.95 231.92 L 356.23 233.88 C328.93,237.78 319.94,238.91 279.23,243.52 ZM 573.29 280.31 C569.27,282.34 561.49,282.17 554.00,279.89 C550.42,278.80 544.98,277.95 541.91,278.00 C535.81,278.10 534.61,277.30 533.70,272.50 C533.12,269.43 535.43,259.51 537.25,257.24 C538.22,256.04 537.97,252.05 536.41,243.59 C535.84,240.50 535.96,239.86 537.00,240.50 C538.00,241.12 538.16,240.74 537.67,238.91 C537.32,237.58 537.02,235.49 537.01,234.25 C537.01,232.88 536.39,232.00 535.44,232.00 C533.07,232.00 534.21,230.78 546.31,220.34 C552.47,215.04 561.28,207.13 565.89,202.78 C575.76,193.46 575.75,193.41 563.00,190.03 C558.33,188.79 552.10,186.93 549.16,185.89 C546.22,184.85 543.67,184.00 543.48,184.00 C542.93,184.00 525.60,198.25 524.50,199.61 C522.98,201.49 514.97,207.35 509.70,210.43 C504.82,213.29 486.89,220.57 481.27,221.97 C478.32,222.71 478.13,222.62 479.06,220.89 C479.62,219.85 479.82,219.00 479.52,219.00 C479.22,219.00 479.64,217.41 480.45,215.46 L 481.93 211.91 L 477.22 208.89 L 472.50 205.86 L 459.50 206.21 C445.12,206.60 441.65,207.72 435.19,214.09 C432.63,216.62 431.95,218.04 432.19,220.42 C432.64,224.86 435.97,226.36 443.50,225.54 C456.81,224.10 460.81,223.12 467.66,219.64 C471.61,217.64 475.07,216.00 475.36,216.00 C475.99,216.00 475.37,219.59 474.50,221.00 C474.16,221.55 474.47,222.02 475.19,222.04 C475.91,222.06 475.26,222.75 473.75,223.57 C472.24,224.39 471.00,225.66 471.00,226.39 C471.00,227.29 469.09,227.90 465.16,228.25 C461.95,228.54 457.84,229.55 456.03,230.48 C453.68,231.70 452.53,231.86 452.04,231.06 C451.65,230.44 450.59,230.22 449.68,230.57 C448.76,230.92 448.22,231.55 448.48,231.97 C449.24,233.19 437.52,243.83 434.62,244.56 C432.82,245.01 431.16,244.63 429.36,243.36 C421.41,237.73 418.20,236.04 415.45,236.02 C413.78,236.01 408.38,235.14 403.45,234.08 C398.53,233.03 392.86,231.96 390.86,231.71 C388.85,231.45 386.76,230.97 386.20,230.63 C383.86,229.18 421.88,190.86 433.02,183.43 C448.67,173.00 466.47,169.74 504.50,170.36 C529.94,170.78 532.28,171.14 544.43,176.51 C547.54,177.89 553.10,180.98 556.79,183.39 C562.85,187.34 564.22,187.81 571.00,188.25 C578.51,188.73 590.00,192.73 590.00,194.86 C590.00,195.39 586.29,198.87 581.75,202.60 C568.40,213.57 559.00,223.06 559.00,225.56 C559.00,226.79 561.55,231.32 564.67,235.64 C582.92,260.94 584.22,263.00 583.55,265.66 C582.47,269.96 576.27,278.81 573.29,280.31 ZM 289.39 339.25 C295.80,344.72 298.00,345.98 298.00,344.20 C298.00,343.76 291.92,337.64 284.50,330.59 C277.08,323.55 271.00,317.25 271.00,316.59 C271.00,315.25 293.97,292.44 304.27,283.56 C308.00,280.34 310.82,277.49 310.55,277.22 C309.48,276.15 294.60,288.50 280.67,302.00 L 266.06 316.17 L 248.78 318.04 C239.28,319.07 227.45,320.37 222.50,320.94 C217.55,321.50 210.68,322.25 207.23,322.61 C203.78,322.97 200.68,323.71 200.34,324.26 C199.66,325.36 209.13,324.80 230.00,322.51 C236.88,321.76 248.04,320.61 254.81,319.96 L 267.12 318.77 L 274.88 326.14 C279.15,330.19 285.68,336.09 289.39,339.25 ZM 104.50 355.42 C105.32,355.56 106.09,355.69 106.79,355.80 C112.22,356.73 114.21,357.06 114.78,356.31 C115.11,355.88 114.98,355.09 114.76,353.85 C114.71,353.57 114.66,353.26 114.61,352.94 L 113.96 348.87 L 118.73 349.39 C121.35,349.68 122.60,349.68 121.50,349.38 C120.40,349.09 117.77,348.40 115.67,347.86 C112.96,347.17 112.00,346.45 112.39,345.44 C113.06,343.68 111.38,343.50 110.64,345.25 C110.27,346.14 109.79,345.98 108.98,344.69 C108.08,343.28 107.54,343.14 106.43,344.06 C104.73,345.47 100.00,344.47 100.00,342.70 C100.00,341.31 107.83,341.57 109.37,343.02 C109.85,343.47 110.86,343.61 111.62,343.31 C113.34,342.65 113.44,338.38 111.75,337.74 C109.17,336.76 90.90,333.77 90.42,334.25 C90.14,334.52 90.45,338.86 91.09,343.89 C92.42,354.24 91.20,353.19 104.50,355.42 ZM 89.80 300.20 C88.04,304.49 86.26,308.00 85.84,308.00 C85.07,308.00 83.39,305.37 82.97,303.50 C82.85,302.95 82.51,301.90 82.23,301.16 C81.95,300.42 82.42,298.40 83.27,296.66 C86.27,290.57 105.80,267.76 107.25,268.66 C107.73,268.95 107.31,269.79 106.31,270.52 C105.31,271.24 104.49,272.21 104.47,272.67 C104.46,273.13 103.73,274.62 102.84,276.00 C97.34,284.56 92.57,293.41 89.80,300.20 ZM 568.46 313.93 C568.82,314.52 570.10,315.00 571.31,315.01 C574.52,315.01 603.37,309.81 604.23,309.07 C604.63,308.72 603.35,307.57 601.38,306.51 C597.82,304.59 597.76,304.59 589.65,306.82 C585.17,308.05 578.60,309.73 575.06,310.55 C567.90,312.22 567.52,312.41 568.46,313.93 ZM 636.47 217.43 C634.92,221.12 635.77,222.19 638.05,219.43 C641.67,215.07 648.00,214.24 650.59,217.79 C651.36,218.85 652.52,219.09 654.46,218.60 C657.23,217.90 657.38,217.10 654.84,216.57 C654.10,216.42 652.38,215.81 651.00,215.21 C649.28,214.47 649.03,214.11 650.20,214.06 C652.57,213.98 657.07,216.00 659.75,218.37 C660.99,219.46 662.00,219.87 662.00,219.29 C662.00,217.45 654.41,211.29 650.58,210.03 C644.45,208.00 639.27,210.72 636.47,217.43 ZM 74.61 364.42 C74.94,365.29 75.53,366.00 75.93,366.00 C77.01,366.00 86.22,346.17 85.77,344.82 C85.56,344.17 84.06,345.37 82.44,347.49 C80.82,349.61 78.26,352.58 76.75,354.10 C74.05,356.80 73.22,360.80 74.61,364.42 ZM 285.35 289.75 C286.47,292.35 288.23,292.64 290.00,290.51 C291.00,289.30 290.92,288.52 289.60,286.51 C286.58,281.91 283.11,284.56 285.35,289.75 ZM 488.00 216.32 C484.22,218.21 484.89,218.04 495.46,214.38 C502.31,212.01 504.87,210.53 503.85,209.52 C503.39,209.06 497.34,211.65 488.00,216.32 ZM 647.59 277.14 C648.17,278.09 650.00,278.32 650.00,277.45 C650.00,276.08 646.85,271.00 646.00,271.00 C645.14,271.00 646.10,274.74 647.59,277.14 ZM 635.59 268.15 C636.32,269.33 637.39,269.21 638.80,267.80 C640.80,265.80 640.15,264.97 637.53,266.17 C636.17,266.79 635.30,267.68 635.59,268.15 ZM 362.54 330.65 C364.59,332.15 368.43,332.50 367.57,331.12 C367.27,330.63 365.60,330.02 363.86,329.77 C361.00,329.35 360.87,329.43 362.54,330.65 ZM 124.00 313.96 C124.00,314.50 123.08,315.42 121.95,316.02 C120.06,317.04 120.01,316.96 121.19,315.06 C122.55,312.90 124.00,312.33 124.00,313.96 ZM 647.50 303.00 C647.84,303.55 648.54,304.00 649.06,304.00 C649.58,304.00 650.00,303.55 650.00,303.00 C650.00,302.45 649.30,302.00 648.44,302.00 C647.58,302.00 647.16,302.45 647.50,303.00 ZM 357.00 222.00 C357.00,222.55 357.45,223.00 358.00,223.00 C358.55,223.00 359.00,222.55 359.00,222.00 C359.00,221.45 358.55,221.00 358.00,221.00 C357.45,221.00 357.00,221.45 357.00,222.00 Z" fill="rgb(30,12,8)"/>
<path d="M 279.23 243.52 C319.94,238.91 328.93,237.78 356.23,233.88 L 369.95 231.92 L 391.23 210.61 C402.93,198.89 415.78,186.68 419.80,183.50 C424.73,179.58 426.77,177.37 426.08,176.68 C423.34,173.94 348.17,173.53 309.50,176.04 C294.72,177.00 290.76,178.01 273.00,185.34 C261.73,190.00 215.01,213.83 209.00,217.98 C207.62,218.93 202.06,222.26 196.63,225.38 C189.21,229.64 186.44,230.78 185.46,229.96 C184.50,229.17 183.08,229.43 180.08,230.96 C174.95,233.58 174.46,236.95 178.66,240.26 C174.95,237.53 173.71,233.92 176.05,232.47 C176.68,232.08 176.03,230.83 174.42,229.34 C172.37,227.44 171.48,227.14 170.62,228.05 C169.79,228.94 169.85,229.38 170.86,229.74 C172.64,230.39 162.41,236.00 159.45,236.00 C158.22,236.00 156.94,235.29 156.61,234.42 C155.24,230.85 144.63,235.70 130.51,246.35 C119.04,255.00 107.88,267.79 99.32,281.68 C100.45,279.79 101.63,277.89 102.84,276.00 C103.73,274.62 104.46,273.13 104.47,272.67 C104.49,272.21 105.31,271.24 106.31,270.52 C107.31,269.79 107.73,268.95 107.25,268.66 C105.80,267.76 86.27,290.57 83.27,296.66 C82.50,298.24 82.04,300.05 82.17,300.92 C82.01,300.14 82.07,298.81 82.34,297.74 C82.88,295.56 82.84,295.57 80.85,297.98 C78.35,301.01 78.83,305.55 82.14,310.19 C82.54,310.76 82.91,311.42 83.22,312.10 C83.02,312.03 82.78,312.00 82.50,312.00 C80.67,312.00 80.58,313.14 82.25,314.95 C83.27,316.05 83.18,316.18 81.76,315.68 C80.41,315.21 80.94,316.92 84.08,323.16 C84.43,323.85 84.75,324.51 85.04,325.13 C83.09,321.65 80.60,318.00 78.98,316.63 C77.06,315.02 76.14,314.23 75.18,314.19 C74.29,314.15 73.37,314.76 71.58,315.95 L 71.50 316.00 C69.42,317.38 66.81,317.99 62.96,317.99 C59.91,318.00 54.96,318.61 51.96,319.37 C48.96,320.12 43.58,321.28 40.00,321.95 C36.42,322.63 29.82,324.04 25.32,325.09 C20.83,326.14 15.57,327.00 13.64,327.00 C7.75,327.00 5.23,328.50 4.07,332.70 C3.85,333.48 3.66,334.51 3.51,335.69 C3.18,310.89 3.00,255.66 3.00,175.94 L 3.00 2.00 L 418.16 2.00 C97.38,2.00 51.29,2.30 48.50,4.41 C46.21,6.14 49.47,11.94 53.15,12.68 C56.36,13.32 56.87,14.73 54.25,15.73 C48.26,17.99 49.85,21.86 58.21,25.42 C61.73,26.91 65.03,28.02 65.55,27.88 C66.07,27.75 68.30,28.15 70.50,28.78 C72.70,29.41 76.19,30.18 78.25,30.50 C80.31,30.83 82.00,31.52 82.00,32.05 C82.00,32.57 82.68,33.00 83.52,33.00 C84.60,33.00 84.87,33.66 84.46,35.29 C84.09,36.78 84.61,38.51 85.94,40.20 C87.07,41.64 88.00,43.42 88.00,44.17 C88.00,46.42 92.17,48.31 98.50,48.92 C104.09,49.47 104.48,49.67 104.24,51.89 C103.88,55.10 105.73,57.11 108.43,56.43 C110.10,56.01 110.90,56.49 111.80,58.45 C112.44,59.87 113.99,61.43 115.24,61.91 C118.19,63.06 127.78,65.80 131.10,66.45 C133.37,66.90 133.69,67.44 133.60,70.65 C133.52,73.72 132.96,74.63 130.22,76.16 C128.41,77.17 124.59,78.22 121.72,78.50 C116.64,79.00 107.28,80.63 103.75,81.64 C101.30,82.33 101.57,83.67 104.56,85.63 C106.51,86.91 110.01,87.39 119.31,87.64 C137.74,88.14 146.15,88.88 147.65,90.13 C148.48,90.81 150.58,91.00 153.02,90.61 C158.38,89.76 162.42,92.19 161.53,95.76 C161.07,97.57 161.56,98.79 163.46,100.55 C165.53,102.47 166.00,103.83 166.00,107.95 C166.00,112.15 165.70,113.00 164.20,113.00 C161.24,113.00 160.00,115.12 160.00,120.18 L 160.00 124.95 L 156.84 124.32 C153.86,123.72 153.73,123.82 154.47,126.09 C154.90,127.42 155.60,131.88 156.01,136.00 C156.83,144.20 158.26,150.37 159.77,152.28 C160.30,152.95 161.04,155.19 161.41,157.25 L 162.09 161.00 L 158.11 161.00 C155.92,161.00 153.01,161.43 151.64,161.95 C149.21,162.87 149.16,163.10 149.38,172.45 C149.52,178.24 150.08,182.48 150.81,183.21 C151.46,183.86 152.00,185.19 152.00,186.15 C152.00,187.12 153.51,189.39 155.36,191.20 C158.91,194.68 161.30,198.76 162.34,203.11 C162.69,204.55 164.78,207.59 166.98,209.86 C169.19,212.14 171.00,214.92 171.00,216.05 C171.00,219.82 180.38,226.99 185.32,227.00 C186.87,227.00 190.20,225.58 192.72,223.85 C195.23,222.12 200.88,219.21 205.26,217.39 C209.64,215.57 217.71,211.55 223.18,208.45 C238.16,199.97 266.00,186.38 278.00,181.71 C293.52,175.66 332.10,165.77 333.75,167.42 C334.07,167.74 333.81,168.00 333.17,168.00 C332.52,168.00 332.00,168.45 332.00,169.00 C332.00,170.39 338.28,170.24 353.50,168.48 C360.65,167.66 373.70,166.54 382.50,166.00 C391.30,165.46 403.90,164.59 410.50,164.07 C421.27,163.23 422.63,163.30 423.77,164.81 C424.47,165.74 425.72,167.31 426.55,168.30 C427.38,169.29 428.12,171.68 428.20,173.60 C428.31,176.70 427.52,177.88 421.35,183.80 C414.65,190.23 414.00,191.02 414.00,192.79 C414.00,193.22 412.22,195.54 410.05,197.94 C407.88,200.34 406.19,202.63 406.30,203.02 C406.41,203.41 404.48,205.96 402.00,208.68 C396.41,214.82 388.60,224.09 387.63,225.73 C387.27,226.34 393.92,219.90 402.93,210.92 C393.06,220.97 385.09,229.94 386.20,230.63 C386.40,230.75 386.79,230.89 387.30,231.03 C386.74,230.93 386.29,230.86 386.00,230.81 C382.55,230.18 373.15,232.18 372.58,233.65 C371.57,236.29 372.99,237.05 376.01,235.50 C379.50,233.69 383.01,233.59 386.52,235.19 C388.62,236.15 389.31,236.12 389.96,235.06 C390.64,233.96 391.98,233.96 397.64,235.01 C401.41,235.71 405.40,236.64 406.50,237.08 C409.32,238.20 415.22,238.15 417.00,237.00 C417.43,236.73 417.64,236.52 417.63,236.37 C420.07,237.11 423.37,239.12 429.36,243.36 C431.16,244.63 432.82,245.01 434.62,244.56 C435.86,244.25 438.70,242.14 441.49,239.72 C439.14,241.80 436.75,243.67 435.30,244.39 C433.17,245.46 429.46,246.00 424.19,246.00 C417.39,246.00 415.52,246.41 410.89,248.87 C404.06,252.51 403.36,255.33 408.20,259.64 C413.03,263.94 419.00,271.59 419.00,273.48 C419.00,274.38 419.45,274.84 420.00,274.50 C420.57,274.15 421.00,274.99 421.00,276.44 C421.00,279.51 421.59,279.59 425.46,277.03 C428.20,275.23 428.57,275.20 430.21,276.69 C431.20,277.58 432.00,277.82 432.00,277.21 C432.00,276.61 431.51,275.82 430.91,275.45 C430.31,275.08 430.20,274.42 430.66,273.98 C432.14,272.57 530.54,233.41 532.00,233.65 C532.28,233.69 533.08,232.90 533.80,231.88 C533.95,231.66 534.36,231.23 534.98,230.61 C534.03,231.76 534.40,232.00 535.44,232.00 C536.39,232.00 537.01,232.88 537.01,234.25 C537.02,235.49 537.32,237.58 537.67,238.91 C538.16,240.74 538.00,241.12 537.00,240.50 C535.96,239.86 535.84,240.50 536.41,243.59 C537.97,252.05 538.22,256.04 537.25,257.24 C535.43,259.51 533.12,269.43 533.70,272.50 C534.61,277.30 535.81,278.10 541.91,278.00 C544.98,277.95 550.42,278.80 554.00,279.89 C561.49,282.17 569.27,282.34 573.29,280.31 C576.27,278.81 582.47,269.96 583.55,265.66 C584.22,263.00 582.92,260.94 564.67,235.64 C561.55,231.32 559.00,226.79 559.00,225.56 C559.00,223.06 568.40,213.57 581.75,202.60 C586.29,198.87 590.00,195.39 590.00,194.86 C590.00,192.73 578.51,188.73 571.00,188.25 C564.22,187.81 562.85,187.34 556.79,183.39 C553.10,180.98 547.54,177.89 544.43,176.51 C533.27,171.58 530.39,170.87 510.28,170.47 C527.66,170.79 529.74,171.14 537.50,173.53 C551.85,177.93 587.52,191.81 591.88,194.68 C592.09,194.82 590.97,196.46 589.38,198.32 C587.80,200.19 585.81,202.57 584.97,203.61 C584.12,204.65 579.54,208.43 574.78,212.00 C570.02,215.57 565.65,219.52 565.08,220.77 L 564.02 223.04 L 571.83 222.39 C576.44,222.01 583.22,222.25 588.38,222.98 C593.61,223.73 600.06,223.95 604.43,223.54 L 611.75 222.85 L 617.50 216.18 C623.54,209.16 624.13,208.66 627.75,207.55 C630.49,206.72 630.71,208.29 628.21,210.79 C625.92,213.08 623.51,218.84 624.45,219.78 C624.84,220.18 626.39,219.15 627.89,217.50 C629.76,215.44 634.06,212.14 638.35,209.34 C636.53,210.66 634.62,212.23 632.62,214.06 C622.89,222.96 616.82,239.71 615.38,261.63 C614.76,271.13 614.84,271.77 616.93,273.72 C617.22,273.99 617.48,274.26 617.70,274.54 L 612.50 274.79 L 606.50 275.08 L 608.86 273.04 C610.16,271.92 611.79,271.00 612.49,271.00 C613.97,271.00 614.63,268.13 615.58,257.65 C616.39,248.79 614.78,247.06 612.76,254.61 C611.18,260.51 607.14,264.11 602.69,263.61 C600.94,263.41 598.23,263.89 596.68,264.68 C593.12,266.50 588.07,272.00 588.03,274.10 C587.99,276.30 578.17,282.28 575.68,281.63 C574.50,281.32 571.04,282.59 567.10,284.76 C561.89,287.65 558.92,288.57 553.00,289.14 C548.88,289.53 543.92,290.14 542.00,290.49 C540.08,290.85 532.65,292.20 525.50,293.51 C511.99,295.97 498.90,297.17 497.16,296.10 C496.61,295.76 496.01,294.81 495.83,293.99 C495.65,293.17 494.09,291.50 492.36,290.29 C489.80,288.48 488.64,288.24 486.08,288.98 C481.80,290.20 477.47,293.60 471.25,300.60 C467.84,304.45 465.31,305.81 460.61,306.33 C458.59,306.55 456.67,307.00 456.34,307.32 C456.02,307.65 458.10,311.09 460.97,314.96 C463.84,318.83 466.76,322.00 467.47,322.00 C468.17,322.00 472.29,320.87 476.62,319.48 C488.29,315.75 492.65,314.45 501.50,312.05 C505.90,310.86 511.08,309.40 513.00,308.80 C513.44,308.67 513.85,308.54 514.23,308.42 C517.74,307.33 518.95,306.96 519.01,307.09 C519.03,307.15 518.74,307.36 518.29,307.68 C518.20,307.75 518.10,307.82 518.00,307.89 C516.71,308.82 516.76,308.97 518.32,308.98 C519.31,308.99 521.03,308.52 522.12,307.94 C523.22,307.35 524.65,307.05 525.31,307.28 C525.96,307.50 523.24,308.72 519.25,309.98 C515.26,311.24 511.21,312.93 510.25,313.72 C508.61,315.07 508.63,315.12 510.50,314.50 C511.60,314.14 515.88,313.47 520.00,313.02 C523.29,312.66 528.53,311.78 532.89,310.87 C528.98,311.75 524.95,312.60 523.00,312.95 C520.53,313.39 512.88,314.92 506.00,316.34 C499.12,317.77 491.70,319.16 489.50,319.44 C487.30,319.72 483.02,320.63 480.00,321.46 C476.98,322.29 472.70,323.45 470.50,324.04 C467.79,324.77 465.82,326.14 464.40,328.31 C462.88,330.62 460.95,331.89 457.40,332.90 C454.70,333.68 449.12,335.38 445.00,336.68 C440.88,337.99 435.64,339.32 433.37,339.65 C429.38,340.22 429.25,340.15 429.71,337.73 C430.08,335.81 429.39,334.50 426.77,332.11 C424.33,329.89 423.00,327.53 422.17,323.92 C420.86,318.24 420.63,312.45 421.89,317.00 C422.44,318.95 422.96,317.62 424.24,311.00 C425.70,303.51 425.73,301.73 424.51,296.00 C423.75,292.42 422.43,287.85 421.58,285.82 C420.73,283.80 419.75,279.68 419.39,276.67 C418.79,271.56 418.30,270.76 412.12,264.68 C403.01,255.71 397.41,252.79 388.22,252.20 C381.40,251.76 380.45,251.97 373.67,255.32 C369.46,257.40 364.68,260.75 362.29,263.31 C357.87,268.02 351.00,278.19 351.00,280.01 C351.00,280.62 350.56,280.84 350.01,280.51 C349.42,280.14 349.29,280.59 349.68,281.61 C350.16,282.87 349.99,283.11 349.02,282.51 C348.09,281.94 347.93,282.07 348.47,282.96 C348.90,283.65 348.86,284.51 348.38,284.86 C346.51,286.22 345.15,289.87 345.72,292.04 C346.13,293.60 345.96,294.09 345.17,293.60 C344.46,293.17 344.22,293.41 344.54,294.25 C345.80,297.52 336.44,302.47 324.26,304.98 C317.04,306.47 314.64,307.89 315.50,310.15 C316.58,312.95 320.04,313.79 324.71,312.39 C327.06,311.68 330.99,310.87 333.44,310.58 C340.00,309.81 340.76,311.01 340.75,322.20 C340.74,336.82 341.93,347.97 344.22,354.70 C345.81,359.36 346.06,361.23 345.21,362.25 C343.79,363.96 337.83,365.42 321.56,368.04 C314.44,369.18 308.29,370.32 307.90,370.56 C307.51,370.80 304.56,371.41 301.34,371.90 C298.13,372.39 288.54,373.98 280.03,375.43 C262.48,378.42 237.05,379.95 204.56,379.98 L 183.61 380.00 L 178.46 374.68 C172.85,368.89 163.00,355.40 163.00,353.51 C163.00,352.47 169.61,351.60 176.59,351.73 C177.74,351.75 183.14,355.14 188.59,359.27 C195.24,364.30 198.64,367.22 202.56,368.86 C207.94,371.11 214.31,370.97 231.41,370.60 C233.73,370.55 236.26,370.50 239.00,370.44 L 271.50 369.81 L 277.50 366.27 C285.23,361.71 297.10,353.89 298.89,352.19 C299.65,351.46 301.34,350.17 302.64,349.32 C305.18,347.65 305.63,345.05 303.94,341.89 C303.36,340.80 297.28,334.44 290.44,327.75 C283.60,321.05 278.00,315.19 278.00,314.73 C278.00,313.55 310.80,280.53 317.46,275.00 C326.02,267.90 325.41,267.74 308.50,272.69 C268.29,284.46 225.35,300.28 183.50,318.73 C163.72,327.45 161.01,327.90 128.64,327.96 L 109.78 328.00 L 110.42 330.55 C111.02,332.95 110.93,333.02 108.91,331.80 C107.73,331.09 105.96,330.03 104.98,329.46 C104.01,328.89 102.55,327.87 101.75,327.21 C100.98,326.57 97.93,325.21 94.85,324.12 C98.30,325.21 102.29,325.92 105.30,325.95 C110.99,326.00 111.13,325.93 112.54,322.56 C113.33,320.66 114.77,318.60 115.74,317.98 C117.40,316.91 117.40,316.88 115.75,317.39 C114.79,317.69 114.00,317.74 114.00,317.50 C114.00,316.39 120.35,310.00 121.45,310.00 C122.57,310.00 125.84,307.61 140.33,296.22 C144.25,293.14 151.24,288.20 162.25,280.72 C169.74,275.64 181.15,269.35 185.25,268.04 C187.31,267.38 189.00,266.35 189.00,265.76 C189.00,265.16 189.28,264.95 189.63,265.29 C190.63,266.30 197.00,263.24 201.42,259.63 C203.67,257.80 207.30,255.73 209.50,255.02 C212.75,253.98 214.08,253.56 214.40,252.75 C214.62,252.20 214.36,251.45 213.91,250.18 L 213.88 250.08 C212.79,246.96 210.72,246.05 204.50,245.98 C199.84,245.92 194.60,245.28 189.99,244.31 C197.26,245.38 208.70,245.77 228.00,245.86 C253.40,245.97 260.52,245.65 279.23,243.52 ZM 3.01 467.50 L 19.76 463.66 C28.97,461.54 44.60,457.85 54.50,455.45 C64.40,453.06 80.38,449.31 90.00,447.12 C115.20,441.41 181.59,426.00 208.91,419.54 C221.78,416.49 233.29,414.00 234.47,414.00 C235.65,414.00 241.99,412.64 248.56,410.98 C254.28,409.54 263.17,407.46 269.74,406.01 C261.12,407.99 247.84,411.15 236.00,414.06 C220.32,417.91 205.25,421.57 202.50,422.21 C199.75,422.85 196.70,424.04 195.72,424.87 C194.74,425.69 192.22,426.45 190.11,426.57 C188.01,426.68 185.39,427.26 184.30,427.84 C183.21,428.42 181.30,428.63 180.06,428.31 C177.79,427.71 176.05,429.20 176.02,431.75 C176.00,433.31 181.62,433.43 182.57,431.88 C183.19,430.89 188.55,431.01 192.95,432.13 C193.75,432.33 194.43,431.86 194.45,431.08 C194.53,428.83 196.40,428.80 198.77,431.00 C200.49,432.61 200.76,433.51 200.03,435.41 C199.54,436.72 199.39,438.06 199.71,438.38 C201.04,439.70 219.60,437.52 235.00,434.23 C256.37,429.66 259.00,429.34 259.00,431.34 C259.00,433.29 257.99,433.90 252.38,435.34 C249.89,435.98 247.88,436.95 247.92,437.50 C247.95,438.05 250.79,438.64 254.22,438.80 C258.16,439.00 261.11,439.69 262.22,440.70 C263.66,442.00 265.11,442.14 270.24,441.47 C279.16,440.31 286.20,439.93 296.45,440.03 C305.17,440.12 308.01,440.73 308.34,442.59 C308.50,443.50 311.80,443.54 332.50,442.86 C341.77,442.56 343.50,442.74 343.50,444.00 C343.50,445.09 341.87,445.68 337.50,446.17 C328.96,447.13 319.58,450.37 319.15,452.51 C318.48,455.85 324.54,457.32 327.36,454.50 C328.18,453.67 329.70,453.00 330.73,453.00 C331.76,453.00 333.14,452.46 333.80,451.80 C334.73,450.87 335.01,450.92 335.03,452.05 C335.06,453.24 335.28,453.22 336.28,451.91 C337.15,450.77 339.89,450.15 345.77,449.75 L 354.04 449.19 L 355.54 452.08 C357.24,455.36 360.48,456.51 365.65,455.67 C369.60,455.03 377.00,457.47 377.00,459.42 C377.00,460.08 376.34,461.49 375.53,462.56 C372.02,467.20 375.00,468.55 379.82,464.50 C381.67,462.94 384.05,461.99 386.14,461.98 C390.59,461.94 396.98,460.42 398.32,459.08 C400.28,457.12 397.27,455.55 391.98,455.78 C388.00,455.96 387.00,455.68 387.00,454.41 C387.00,453.53 387.90,452.58 389.00,452.29 C391.26,451.70 391.62,450.42 389.75,449.66 C389.06,449.38 389.67,449.12 391.10,449.08 C394.78,448.97 400.35,446.92 401.30,445.34 C402.63,443.12 406.39,443.77 407.63,446.45 C408.53,448.39 408.47,448.99 407.33,449.43 C404.40,450.55 408.09,453.95 416.69,458.03 L 425.35 462.15 L 429.14 460.44 C432.02,459.14 434.64,458.85 440.01,459.23 C446.07,459.67 447.67,460.20 451.06,462.93 C454.65,465.81 455.17,465.97 456.58,464.56 C457.44,463.70 459.58,463.00 461.33,463.00 C463.08,463.00 466.09,462.50 468.01,461.89 C472.34,460.51 491.58,458.14 499.06,458.06 C502.48,458.02 505.36,458.56 506.56,459.47 C509.27,461.52 512.70,461.35 516.56,458.96 C518.83,457.56 522.90,456.62 529.68,455.94 C546.58,454.23 558.06,452.02 560.47,450.03 C562.66,448.21 564.63,449.38 565.34,452.93 L 565.96 456.04 L 580.73 455.81 C594.16,455.60 595.91,455.78 600.00,457.77 C605.62,460.50 612.13,460.58 617.87,457.97 C621.49,456.33 622.90,456.17 626.06,457.02 C628.16,457.58 631.65,457.76 633.81,457.41 C636.50,456.98 638.50,457.26 640.12,458.28 C641.57,459.18 644.97,459.77 648.81,459.78 C653.18,459.79 655.66,460.28 656.88,461.40 C657.86,462.28 659.08,463.00 659.61,463.00 C660.13,463.00 662.12,464.10 664.03,465.45 L 664.26 465.61 C666.55,467.23 667.47,467.88 668.33,467.81 C668.94,467.76 669.52,467.36 670.53,466.69 C673.77,464.52 684.98,460.00 687.10,460.00 C688.18,460.00 689.32,460.67 689.64,461.50 C690.04,462.55 691.68,463.00 695.07,463.00 C699.06,463.00 700.55,462.45 703.39,459.96 L 706.85 456.93 L 720.95 457.09 C732.78,457.23 735.19,457.51 735.99,458.88 C736.72,460.12 736.95,459.67 736.97,456.95 C736.99,455.00 737.51,452.89 738.14,452.26 C738.77,451.63 739.64,445.81 740.08,439.31 C740.51,432.81 740.90,331.76 740.94,214.75 L 741.00 2.00 L 741.00 494.00 L 3.00 494.00 ZM 484.56 220.98 C483.35,221.43 482.30,221.83 481.51,222.12 L 481.45 222.15 C477.61,223.59 476.33,224.08 476.16,223.82 C476.07,223.69 476.26,223.38 476.55,222.92 L 476.56 222.90 C477.00,222.19 476.40,222.24 474.87,223.04 C473.79,223.60 473.02,224.04 472.55,224.36 C472.91,224.07 473.32,223.80 473.75,223.57 C475.26,222.75 475.91,222.06 475.19,222.04 C474.47,222.02 474.16,221.55 474.50,221.00 C475.37,219.59 475.99,216.00 475.36,216.00 C475.07,216.00 471.61,217.64 467.66,219.64 C460.81,223.12 456.81,224.10 443.50,225.54 C435.97,226.36 432.64,224.86 432.19,220.42 C431.95,218.04 432.63,216.62 435.19,214.09 C441.65,207.72 445.12,206.60 459.50,206.21 L 472.50 205.86 L 477.22 208.89 L 481.93 211.91 L 480.45 215.46 C479.64,217.41 479.22,219.00 479.52,219.00 C479.82,219.00 479.62,219.85 479.06,220.89 C478.13,222.62 478.32,222.71 481.27,221.97 C482.12,221.76 483.24,221.42 484.56,220.98 ZM 563.36 205.14 C565.81,202.70 565.98,202.01 564.90,202.02 C564.13,202.03 562.38,202.92 561.00,204.00 C558.08,206.28 556.57,206.55 557.30,204.66 C557.69,203.63 556.40,203.34 551.66,203.37 C546.65,203.41 544.57,202.89 540.50,200.54 C537.75,198.96 534.49,196.76 533.25,195.66 L 531.17 193.80 C536.51,189.35 543.14,184.00 543.48,184.00 C543.67,184.00 546.22,184.85 549.16,185.89 C552.10,186.93 558.33,188.79 563.00,190.03 C575.75,193.41 575.76,193.46 565.89,202.78 C565.15,203.48 564.29,204.28 563.36,205.14 ZM 221.49 290.98 C221.84,291.55 223.32,291.72 224.81,291.36 C228.12,290.56 245.69,281.92 256.53,275.77 C260.94,273.26 266.28,270.49 268.39,269.61 C271.18,268.45 272.05,267.58 271.61,266.42 C271.27,265.55 271.00,264.42 271.00,263.92 C271.00,263.41 269.90,263.00 268.56,263.00 C267.22,263.00 265.84,262.55 265.50,262.00 C264.18,259.86 258.21,261.01 253.36,264.35 C250.68,266.19 246.97,268.48 245.10,269.45 C243.23,270.42 238.71,273.97 235.04,277.35 C231.38,280.73 226.69,284.95 224.62,286.73 C222.55,288.50 221.14,290.42 221.49,290.98 ZM 104.50 355.42 C91.20,353.19 92.42,354.24 91.09,343.89 C90.45,338.86 90.14,334.52 90.42,334.25 C90.90,333.77 109.17,336.76 111.75,337.74 C113.44,338.38 113.34,342.65 111.62,343.31 C110.86,343.61 109.85,343.47 109.37,343.02 C107.83,341.57 100.00,341.31 100.00,342.70 C100.00,344.47 104.73,345.47 106.43,344.06 C107.54,343.14 108.08,343.28 108.98,344.69 C109.79,345.98 110.27,346.14 110.64,345.25 C111.38,343.50 113.06,343.68 112.39,345.44 C112.00,346.45 112.96,347.17 115.67,347.86 C117.77,348.40 120.40,349.09 121.50,349.38 C122.60,349.68 121.35,349.68 118.73,349.39 L 113.96 348.87 L 114.61 352.94 C114.66,353.26 114.71,353.57 114.76,353.85 C114.98,355.09 115.11,355.88 114.78,356.31 C114.21,357.06 112.22,356.73 106.79,355.80 C106.09,355.69 105.32,355.56 104.50,355.42 ZM 636.47 217.43 C639.27,210.72 644.45,208.00 650.58,210.03 C654.41,211.29 662.00,217.45 662.00,219.29 C662.00,219.87 660.99,219.46 659.75,218.37 C657.07,216.00 652.57,213.98 650.20,214.06 C649.03,214.11 649.28,214.47 651.00,215.21 C652.38,215.81 654.10,216.42 654.84,216.57 C657.38,217.10 657.23,217.90 654.46,218.60 C652.52,219.09 651.36,218.85 650.59,217.79 C648.00,214.24 641.67,215.07 638.05,219.43 C635.77,222.19 634.92,221.12 636.47,217.43 ZM 74.61 364.42 C73.22,360.80 74.05,356.80 76.75,354.10 C78.26,352.58 80.82,349.61 82.44,347.49 C84.06,345.37 85.56,344.17 85.77,344.82 C86.22,346.17 77.01,366.00 75.93,366.00 C75.53,366.00 74.94,365.29 74.61,364.42 ZM 611.15 284.83 C593.35,291.14 585.88,294.53 582.88,297.63 C580.66,299.91 578.68,301.00 576.75,301.00 C574.32,301.00 570.86,301.42 567.49,302.03 C569.82,301.48 572.08,300.64 573.15,299.88 C574.61,298.85 576.32,298.00 576.94,298.00 C578.33,298.00 582.64,295.38 586.00,292.49 C587.50,291.20 591.31,289.81 595.50,289.03 C599.35,288.31 606.10,286.52 610.50,285.04 ZM 516.69 282.35 C517.07,282.73 517.85,282.88 518.44,282.69 C519.57,282.32 524.07,276.26 526.49,271.85 C529.03,267.24 525.79,267.72 520.66,272.71 C516.34,276.91 514.85,280.52 516.69,282.35 ZM 73.87 454.90 C72.02,456.39 72.46,456.48 80.38,456.18 C86.27,455.96 89.24,455.41 90.08,454.40 C90.74,453.61 91.06,452.73 90.79,452.46 C89.70,451.36 75.76,453.38 73.87,454.90 ZM 488.00 216.32 C497.34,211.65 503.39,209.06 503.85,209.52 C504.87,210.53 502.31,212.01 495.46,214.38 C484.89,218.04 484.22,218.21 488.00,216.32 ZM 672.54 276.63 C671.68,282.61 670.08,287.22 667.29,292.97 C667.00,293.57 666.69,294.17 666.35,294.77 C667.65,292.18 668.38,289.60 668.63,286.84 C669.12,281.55 670.43,278.06 672.40,276.79 C672.45,276.76 672.49,276.70 672.54,276.63 ZM 473.75 211.34 C475.26,212.14 477.12,212.84 477.87,212.89 C479.91,213.05 477.38,210.25 473.82,208.41 C471.34,207.13 471.00,207.13 471.00,208.42 C471.00,209.23 472.24,210.54 473.75,211.34 ZM 62.95 14.05 C61.05,15.26 57.00,15.26 57.00,14.06 C57.00,12.45 59.00,11.78 61.75,12.47 C63.83,13.00 64.09,13.33 62.95,14.05 ZM 472.06 224.77 C471.91,225.01 472.47,224.95 473.75,224.56 C476.07,223.84 476.91,225.32 474.90,226.56 C474.38,226.88 471.51,227.43 468.16,227.86 C470.06,227.50 471.00,227.02 471.00,226.39 C471.00,225.97 471.41,225.37 472.06,224.77 ZM 206.75 428.25 C206.28,429.68 203.73,430.40 202.73,429.40 C201.64,428.31 202.96,427.00 205.14,427.00 C206.32,427.00 206.99,427.52 206.75,428.25 ZM 285.67 452.33 C286.70,453.37 287.65,453.13 289.00,451.50 C290.05,450.23 289.84,450.00 287.62,450.00 C285.09,450.00 284.29,450.95 285.67,452.33 ZM 635.59 268.15 C635.30,267.68 636.17,266.79 637.53,266.17 C640.15,264.97 640.80,265.80 638.80,267.80 C637.39,269.21 636.32,269.33 635.59,268.15 ZM 64.51 456.99 C64.14,457.58 65.12,458.00 66.88,458.00 C70.79,458.00 71.73,456.48 68.00,456.20 C66.42,456.08 64.85,456.43 64.51,456.99 ZM 362.54 330.65 C360.87,329.43 361.00,329.35 363.86,329.77 C365.60,330.02 367.27,330.63 367.57,331.12 C368.43,332.50 364.59,332.15 362.54,330.65 ZM 647.21 276.49 C645.95,274.12 645.21,271.00 646.00,271.00 C646.69,271.00 648.92,274.38 649.71,276.37 C649.44,275.92 649.00,275.41 648.50,275.00 C647.28,273.99 647.00,274.03 647.00,275.21 C647.00,275.63 647.08,276.09 647.21,276.49 ZM 297.00 451.00 C297.00,451.55 298.15,452.00 299.56,452.00 C301.01,452.00 301.85,451.57 301.50,451.00 C301.16,450.45 300.01,450.00 298.94,450.00 C297.87,450.00 297.00,450.45 297.00,451.00 ZM 93.00 336.00 C93.00,336.55 93.87,337.00 94.94,337.00 C96.01,337.00 97.16,336.55 97.50,336.00 C97.85,335.43 97.01,335.00 95.56,335.00 C94.15,335.00 93.00,335.45 93.00,336.00 ZM 678.00 231.50 C678.00,232.26 677.55,233.16 677.00,233.50 C676.43,233.85 676.00,232.99 676.00,231.50 C676.00,230.01 676.43,229.15 677.00,229.50 C677.55,229.84 678.00,230.74 678.00,231.50 ZM 124.00 313.96 C124.00,312.33 122.55,312.90 121.19,315.06 C120.01,316.96 120.06,317.04 121.95,316.02 C123.08,315.42 124.00,314.50 124.00,313.96 ZM 365.74 439.31 C367.55,441.12 366.46,441.58 364.03,440.04 C363.22,439.53 362.89,438.77 363.30,438.36 C363.71,437.95 364.81,438.38 365.74,439.31 ZM 391.00 445.00 C391.00,445.55 390.33,446.00 389.50,446.00 C388.67,446.00 388.00,445.55 388.00,445.00 C388.00,444.45 388.67,444.00 389.50,444.00 C390.33,444.00 391.00,444.45 391.00,445.00 ZM 647.50 303.00 C647.16,302.45 647.58,302.00 648.44,302.00 C649.30,302.00 650.00,302.45 650.00,303.00 C650.00,303.55 649.58,304.00 649.06,304.00 C648.54,304.00 647.84,303.55 647.50,303.00 ZM 357.00 222.00 C357.00,221.45 357.45,221.00 358.00,221.00 C358.55,221.00 359.00,221.45 359.00,222.00 C359.00,222.55 358.55,223.00 358.00,223.00 C357.45,223.00 357.00,222.55 357.00,222.00 ZM 77.19 337.51 C83.97,336.09 86.59,335.16 87.52,333.86 C87.49,334.06 87.48,334.24 87.43,334.41 C87.16,335.25 85.94,335.78 77.19,337.51 ZM 525.82 198.36 C525.24,198.91 524.78,199.39 524.53,199.67 C522.46,202.03 518.56,204.94 513.84,207.83 C518.44,204.77 523.34,201.04 524.50,199.61 C524.65,199.42 525.12,198.98 525.82,198.36 ZM 644.46 205.73 C644.54,205.69 644.62,205.65 644.70,205.61 C650.06,202.92 655.08,203.52 660.26,207.47 C655.40,203.76 650.36,203.12 644.46,205.73 ZM 266.81 261.32 C266.01,261.64 266.25,261.87 267.42,261.92 C268.47,261.96 269.06,261.73 268.73,261.40 C268.40,261.06 267.53,261.03 266.81,261.32 ZM 514.81 309.32 C514.01,309.64 514.25,309.87 515.42,309.92 C516.47,309.96 517.06,309.73 516.73,309.40 C516.40,309.06 515.53,309.03 514.81,309.32 ZM 448.11 175.91 C442.57,177.84 437.70,180.31 433.02,183.43 C428.78,186.26 420.62,193.59 412.28,201.64 C421.75,192.42 428.99,186.04 433.02,183.38 C437.71,180.29 442.58,177.83 448.11,175.91 ZM 618.50 275.89 C618.85,276.78 618.94,277.77 618.82,279.01 C618.75,279.73 618.66,280.29 618.50,280.77 ZM 656.61 306.57 C655.39,307.57 654.18,308.40 653.04,308.97 C652.33,309.33 650.68,309.92 648.43,310.61 C652.17,309.35 654.56,308.14 656.61,306.57 ZM 565.26 302.46 C561.50,303.25 558.18,304.22 557.00,305.02 C555.63,305.96 552.25,307.05 549.50,307.45 C552.25,307.05 555.63,305.95 557.00,304.99 C558.38,304.03 561.97,302.91 565.00,302.50 C565.09,302.49 565.17,302.48 565.26,302.46 ZM 464.70 228.30 C461.13,228.83 457.43,229.76 455.92,230.54 C453.65,231.72 452.54,231.87 452.04,231.06 C452.54,231.86 453.68,231.70 456.03,230.48 C457.76,229.59 461.57,228.64 464.70,228.30 ZM 84.14 315.06 C84.20,315.43 84.21,315.76 84.19,316.06 C84.10,317.30 84.24,318.25 84.85,319.10 C84.22,318.34 83.98,317.55 84.05,316.69 C84.10,316.07 84.13,315.53 84.14,315.06 ZM 82.34 301.46 C82.60,302.16 82.86,303.02 82.97,303.50 C83.12,304.15 83.41,304.88 83.77,305.57 C83.15,304.54 82.66,303.47 82.70,303.00 C82.72,302.75 82.57,302.09 82.34,301.46 ZM 286.69 402.23 C295.94,400.09 308.05,397.20 324.05,393.31 C306.15,397.66 295.05,400.32 286.69,402.23 ZM 501.97 214.14 C499.63,215.22 497.28,216.21 495.00,217.07 L 494.83 217.13 C497.27,216.15 499.73,215.12 501.97,214.14 ZM 544.65 221.78 C545.98,220.60 547.38,219.38 548.80,218.15 C549.97,217.13 551.07,216.18 552.09,215.29 C550.06,217.09 548.07,218.82 546.31,220.34 C545.73,220.84 545.18,221.32 544.65,221.78 ZM 10.23 350.01 C12.99,349.48 17.40,348.66 22.40,347.73 C18.18,348.52 14.67,349.19 12.72,349.56 C11.87,349.73 11.03,349.88 10.23,350.01 ZM 649.00 277.98 C649.50,278.00 649.91,277.76 649.99,277.29 C650.00,277.35 650.00,277.40 650.00,277.45 C650.00,277.89 649.53,278.05 649.00,277.98 ZM 89.80 300.20 C90.22,299.17 90.68,298.10 91.19,296.99 C90.70,298.08 90.23,299.16 89.79,300.25 C88.04,304.50 86.27,307.98 85.84,308.00 C86.27,307.98 88.05,304.47 89.80,300.20 ZM 90.38 322.47 C90.88,322.67 91.41,322.87 91.97,323.09 C91.41,322.88 90.88,322.67 90.38,322.47 Z" fill="rgb(165,50,8)"/>
<path d="M 207.91 215.17 C207.54,215.85 207.32,216.29 207.32,216.50 C206.57,216.83 205.88,217.13 205.26,217.39 C200.88,219.21 195.23,222.12 192.72,223.85 C190.20,225.58 186.87,227.00 185.32,227.00 C180.38,226.99 171.00,219.82 171.00,216.05 C171.00,214.92 169.19,212.14 166.98,209.86 C164.78,207.59 162.69,204.55 162.34,203.11 C161.30,198.76 158.91,194.68 155.36,191.20 C153.51,189.39 152.00,187.12 152.00,186.15 C152.00,185.19 151.46,183.86 150.81,183.21 C150.08,182.48 149.52,178.24 149.38,172.45 C149.16,163.10 149.21,162.87 151.64,161.95 C153.01,161.43 155.92,161.00 158.11,161.00 L 162.09 161.00 L 161.41 157.25 C161.04,155.19 160.30,152.95 159.77,152.28 C158.26,150.37 156.83,144.20 156.01,136.00 C155.60,131.88 154.90,127.42 154.47,126.09 C153.73,123.82 153.86,123.72 156.84,124.32 L 160.00 124.95 L 160.00 120.18 C160.00,115.12 161.24,113.00 164.20,113.00 C165.70,113.00 166.00,112.15 166.00,107.95 C166.00,103.83 165.53,102.47 163.46,100.55 C161.56,98.79 161.07,97.57 161.53,95.76 C162.42,92.19 158.38,89.76 153.02,90.61 C150.58,91.00 148.48,90.81 147.65,90.13 C146.15,88.88 137.74,88.14 119.31,87.64 C110.01,87.39 106.51,86.91 104.56,85.63 C101.57,83.67 101.30,82.33 103.75,81.64 C107.28,80.63 116.64,79.00 121.72,78.50 C124.59,78.22 128.41,77.17 130.22,76.16 C132.96,74.63 133.52,73.72 133.60,70.65 C133.69,67.44 133.37,66.90 131.10,66.45 C127.78,65.80 118.19,63.06 115.24,61.91 C113.99,61.43 112.44,59.87 111.80,58.45 C110.90,56.49 110.10,56.01 108.43,56.43 C105.73,57.11 103.88,55.10 104.24,51.89 C104.48,49.67 104.09,49.47 98.50,48.92 C92.17,48.31 88.00,46.42 88.00,44.17 C88.00,43.42 87.07,41.64 85.94,40.20 C84.61,38.51 84.09,36.78 84.46,35.29 C84.87,33.66 84.60,33.00 83.52,33.00 C82.68,33.00 82.00,32.57 82.00,32.05 C82.00,31.52 80.31,30.83 78.25,30.50 C76.19,30.18 72.70,29.41 70.50,28.78 C68.30,28.15 66.07,27.75 65.55,27.88 C65.03,28.02 61.73,26.91 58.21,25.42 C49.85,21.86 48.26,17.99 54.25,15.73 C56.87,14.73 56.36,13.32 53.15,12.68 C49.47,11.94 46.21,6.14 48.50,4.41 C51.29,2.30 97.38,2.00 418.16,2.00 L 535.83 2.00 C423.20,2.00 331.30,2.28 331.30,2.63 L 331.30 2.63 C331.65,2.98 331.54,4.00 331.06,4.89 C330.49,5.96 330.82,7.81 332.02,10.29 C333.81,13.96 333.81,14.10 332.01,15.23 C330.21,16.35 330.21,16.45 332.08,18.83 C334.23,21.56 334.75,30.89 333.01,35.46 C332.37,37.17 332.37,40.53 333.01,45.28 C333.72,50.44 333.66,54.07 332.82,58.00 C332.17,61.03 331.61,68.38 331.57,74.35 C331.50,84.91 331.44,85.22 329.00,86.35 C324.85,88.26 325.45,97.22 330.08,102.50 C331.04,103.60 331.97,106.30 332.13,108.50 C332.59,114.46 335.49,118.68 340.72,121.00 C343.22,122.10 345.77,123.00 346.40,123.00 C347.04,123.00 348.67,123.79 350.03,124.75 C351.39,125.71 354.27,126.50 356.42,126.50 C360.11,126.50 360.37,126.70 360.73,129.77 C361.00,132.08 360.73,132.96 359.81,132.77 C358.96,132.60 358.50,133.56 358.50,135.50 C358.50,137.46 358.96,138.40 359.82,138.23 C360.68,138.05 361.03,138.75 360.82,140.20 C360.42,142.99 356.68,144.97 351.75,144.99 C347.60,145.00 347.27,145.41 349.56,147.70 C350.41,148.56 350.88,149.87 350.59,150.63 C350.30,151.38 350.61,152.01 351.28,152.03 C353.62,152.09 356.12,154.83 356.42,157.65 C356.69,160.10 356.16,160.79 352.68,162.54 C350.46,163.67 348.47,165.09 348.27,165.70 C347.69,167.43 354.08,168.09 364.03,167.43 C360.02,167.79 356.30,168.16 353.50,168.48 C338.28,170.24 332.00,170.39 332.00,169.00 C332.00,168.45 332.52,168.00 333.17,168.00 C333.81,168.00 334.07,167.74 333.75,167.42 C332.10,165.77 293.52,175.66 278.00,181.71 C266.00,186.38 238.16,199.97 223.18,208.45 C220.17,210.15 216.38,212.13 212.85,213.87 C214.15,213.09 215.53,212.22 216.61,211.49 C219.58,209.47 219.88,209.00 218.20,209.00 C215.43,209.00 209.21,212.73 207.91,215.17 ZM 286.69 402.23 L 286.69 402.23 C295.05,400.32 306.13,397.67 323.99,393.32 L 324.05 393.31 C327.06,392.58 330.21,391.81 333.50,391.00 C373.83,381.16 382.93,379.00 384.18,379.00 C384.95,379.00 387.36,378.06 389.54,376.92 C391.72,375.77 399.12,373.29 406.00,371.40 C412.88,369.52 420.08,367.32 422.00,366.52 C425.95,364.87 463.28,355.14 481.50,351.01 C485.13,350.19 489.97,349.03 494.65,347.88 C491.16,348.79 488.09,349.57 486.50,349.94 C480.37,351.38 476.51,354.28 477.45,356.75 C477.99,358.15 477.87,358.25 476.86,357.25 C475.36,355.76 473.62,355.58 474.50,357.00 C474.84,357.55 474.53,358.01 473.81,358.02 C472.86,358.03 472.91,358.30 474.00,359.00 C475.00,359.65 475.08,359.97 474.25,359.98 C473.56,359.99 473.00,360.45 473.00,361.00 C473.00,362.56 478.83,362.17 482.66,360.36 C485.43,359.04 488.05,358.83 495.81,359.27 C505.70,359.83 511.00,361.13 511.00,363.00 C511.00,363.57 512.16,365.87 513.57,368.12 L 516.15 372.19 L 525.32 371.53 C538.31,370.60 545.90,370.68 558.49,371.88 C565.54,372.55 569.82,372.58 570.44,371.96 C571.92,370.48 576.00,370.81 576.00,372.42 C576.00,374.28 577.77,374.84 581.71,374.24 C583.47,373.97 585.72,374.10 586.71,374.52 C587.69,374.95 592.36,375.22 597.07,375.12 C602.69,375.01 606.84,375.45 609.14,376.41 C611.65,377.46 615.35,377.77 622.21,377.50 L 631.78 377.12 L 634.60 380.28 C636.69,382.63 637.34,384.29 637.13,386.72 C636.85,389.94 636.92,390.00 640.97,390.00 C644.75,390.00 645.23,389.70 646.56,386.50 C647.92,383.26 648.35,383.00 652.36,383.00 C655.42,383.00 657.22,383.59 658.50,385.00 C659.50,386.10 660.97,387.00 661.79,387.00 C662.90,387.00 663.13,387.82 662.72,390.36 C662.34,392.70 662.75,394.59 664.08,396.61 C665.13,398.20 665.99,400.19 665.99,401.03 C666.00,401.87 666.70,403.56 667.56,404.78 C668.65,406.35 670.13,407.00 672.57,407.00 C676.31,407.00 682.97,403.30 682.99,401.22 C682.99,400.51 683.67,399.68 684.50,399.36 C685.41,399.01 686.00,397.50 686.00,395.55 C686.00,392.21 688.52,386.06 690.42,384.77 C691.01,384.36 693.53,384.02 696.00,384.02 C698.48,384.01 703.60,383.12 707.37,382.04 C714.48,380.01 719.95,380.05 727.25,382.21 C731.65,383.51 732.09,384.74 728.33,385.18 C726.86,385.36 725.46,386.10 725.22,386.83 C724.88,387.85 726.05,388.10 730.14,387.91 C733.09,387.77 736.74,387.24 738.25,386.73 L 740.58 385.94 C740.44,416.76 740.26,436.55 740.08,439.31 C739.64,445.81 738.77,451.63 738.14,452.26 C737.51,452.89 736.99,455.00 736.97,456.95 C736.95,459.67 736.72,460.12 735.99,458.88 C735.19,457.51 732.78,457.23 720.95,457.09 L 706.85 456.93 L 703.39 459.96 C700.55,462.45 699.06,463.00 695.07,463.00 C691.68,463.00 690.04,462.55 689.64,461.50 C689.32,460.67 688.18,460.00 687.10,460.00 C684.98,460.00 673.77,464.52 670.53,466.69 C669.52,467.36 668.94,467.76 668.33,467.81 C667.47,467.88 666.55,467.23 664.26,465.61 L 664.03 465.45 C662.12,464.10 660.13,463.00 659.61,463.00 C659.08,463.00 657.86,462.28 656.88,461.40 C655.66,460.28 653.18,459.79 648.81,459.78 C644.97,459.77 641.57,459.18 640.12,458.28 C638.50,457.26 636.50,456.98 633.81,457.41 C631.65,457.76 628.16,457.58 626.06,457.02 C622.90,456.17 621.49,456.33 617.87,457.97 C612.13,460.58 605.62,460.50 600.00,457.77 C595.91,455.78 594.16,455.60 580.73,455.81 L 565.96 456.04 L 565.34 452.93 C564.63,449.38 562.66,448.21 560.47,450.03 C558.06,452.02 546.58,454.23 529.68,455.94 C522.90,456.62 518.83,457.56 516.56,458.96 C512.70,461.35 509.27,461.52 506.56,459.47 C505.36,458.56 502.48,458.02 499.06,458.06 C491.58,458.14 472.34,460.51 468.01,461.89 C466.09,462.50 463.08,463.00 461.33,463.00 C459.58,463.00 457.44,463.70 456.58,464.56 C455.17,465.97 454.65,465.81 451.06,462.93 C447.67,460.20 446.07,459.67 440.01,459.23 C434.64,458.85 432.02,459.14 429.14,460.44 L 425.35 462.15 L 416.69 458.03 C408.09,453.95 404.40,450.55 407.33,449.43 C408.47,448.99 408.53,448.39 407.63,446.45 C406.39,443.77 402.63,443.12 401.30,445.34 C400.35,446.92 394.78,448.97 391.10,449.08 C389.67,449.12 389.06,449.38 389.75,449.66 C391.62,450.42 391.26,451.70 389.00,452.29 C387.90,452.58 387.00,453.53 387.00,454.41 C387.00,455.68 388.00,455.96 391.98,455.78 C397.27,455.55 400.28,457.12 398.32,459.08 C396.98,460.42 390.59,461.94 386.14,461.98 C384.05,461.99 381.67,462.94 379.82,464.50 C375.00,468.55 372.02,467.20 375.53,462.56 C376.34,461.49 377.00,460.08 377.00,459.42 C377.00,457.47 369.60,455.03 365.65,455.67 C360.48,456.51 357.24,455.36 355.54,452.08 L 354.04 449.19 L 345.77 449.75 C339.89,450.15 337.15,450.77 336.28,451.91 C335.28,453.22 335.06,453.24 335.03,452.05 C335.01,450.92 334.73,450.87 333.80,451.80 C333.14,452.46 331.76,453.00 330.73,453.00 C329.70,453.00 328.18,453.67 327.36,454.50 C324.54,457.32 318.48,455.85 319.15,452.51 C319.58,450.37 328.96,447.13 337.50,446.17 C341.87,445.68 343.50,445.09 343.50,444.00 C343.50,442.74 341.77,442.56 332.50,442.86 C311.80,443.54 308.50,443.50 308.34,442.59 C308.01,440.73 305.17,440.12 296.45,440.03 C286.20,439.93 279.16,440.31 270.24,441.47 C265.11,442.14 263.66,442.00 262.22,440.70 C261.11,439.69 258.16,439.00 254.22,438.80 C250.79,438.64 247.95,438.05 247.92,437.50 C247.88,436.95 249.89,435.98 252.38,435.34 C257.99,433.90 259.00,433.29 259.00,431.34 C259.00,429.34 256.37,429.66 235.00,434.23 C219.60,437.52 201.04,439.70 199.71,438.38 C199.39,438.06 199.54,436.72 200.03,435.41 C200.76,433.51 200.49,432.61 198.77,431.00 C196.40,428.80 194.53,428.83 194.45,431.08 C194.43,431.86 193.75,432.33 192.95,432.13 C188.55,431.01 183.19,430.89 182.57,431.88 C181.62,433.43 176.00,433.31 176.02,431.75 C176.05,429.20 177.79,427.71 180.06,428.31 C181.30,428.63 183.21,428.42 184.30,427.84 C185.39,427.26 188.01,426.68 190.11,426.57 C192.22,426.45 194.74,425.69 195.72,424.87 C196.70,424.04 199.75,422.85 202.50,422.21 C205.25,421.57 220.32,417.91 236.00,414.06 C247.84,411.15 261.12,407.99 269.74,406.01 L 269.74 406.01 C270.72,405.80 271.64,405.60 272.50,405.41 C276.28,404.61 280.92,403.57 286.69,402.23 ZM 84.14 315.06 C84.15,314.95 84.15,314.85 84.15,314.75 C84.30,315.34 84.38,315.89 84.40,316.37 C84.48,318.90 85.17,319.83 88.00,321.25 C92.94,323.71 93.66,323.42 90.08,320.41 C86.53,317.43 86.32,316.19 88.78,312.88 C89.76,311.57 91.65,308.02 92.98,305.00 C94.31,301.98 95.88,299.05 96.48,298.50 C99.08,296.11 102.40,290.44 102.45,288.31 C102.48,286.94 104.68,283.61 107.77,280.24 C110.67,277.08 119.65,267.30 127.73,258.51 C138.08,247.23 141.92,242.42 140.76,242.19 C138.71,241.80 130.66,246.97 121.85,254.32 C112.90,261.80 102.59,275.38 95.25,288.86 C96.51,286.52 97.87,284.11 99.32,281.68 C107.88,267.79 119.04,255.00 130.51,246.35 C144.63,235.70 155.24,230.85 156.61,234.42 C156.94,235.29 158.22,236.00 159.45,236.00 C162.41,236.00 172.64,230.39 170.86,229.74 C169.85,229.38 169.79,228.94 170.62,228.05 C171.48,227.14 172.37,227.44 174.42,229.34 C176.03,230.83 176.68,232.08 176.05,232.47 C173.71,233.92 174.95,237.53 178.66,240.26 C178.94,240.48 179.25,240.70 179.57,240.92 C181.85,242.47 184.90,243.56 189.99,244.31 C194.60,245.28 199.84,245.92 204.50,245.98 C210.72,246.05 212.79,246.96 213.88,250.08 L 213.91 250.18 C214.36,251.45 214.62,252.20 214.40,252.75 C214.08,253.56 212.75,253.98 209.50,255.02 C207.30,255.73 203.67,257.80 201.42,259.63 C197.00,263.24 190.63,266.30 189.63,265.29 C189.28,264.95 189.00,265.16 189.00,265.76 C189.00,266.35 187.31,267.38 185.25,268.04 C181.15,269.35 169.74,275.64 162.25,280.72 C151.24,288.20 144.25,293.14 140.33,296.22 C125.84,307.61 122.57,310.00 121.45,310.00 C120.35,310.00 114.00,316.39 114.00,317.50 C114.00,317.74 114.79,317.69 115.75,317.39 C117.40,316.88 117.40,316.91 115.74,317.98 C114.77,318.60 113.33,320.66 112.54,322.56 C111.13,325.93 110.99,326.00 105.30,325.95 C102.29,325.92 98.30,325.21 94.85,324.12 C94.72,324.08 94.58,324.03 94.44,323.98 C93.56,323.68 92.73,323.38 91.97,323.09 C91.41,322.87 90.88,322.67 90.39,322.47 L 90.38 322.47 C87.54,321.29 85.78,320.22 84.85,319.10 C84.24,318.25 84.10,317.30 84.19,316.06 C84.21,315.76 84.20,315.43 84.14,315.06 ZM 77.19 337.51 C70.27,338.89 58.62,341.01 39.00,344.64 C33.46,345.66 27.43,346.78 22.40,347.73 L 22.40 347.73 C17.40,348.66 12.99,349.48 10.23,350.01 L 10.23 350.01 C7.01,350.53 4.39,350.74 3.97,350.48 C3.79,350.37 3.64,345.33 3.51,335.69 C3.66,334.51 3.85,333.48 4.07,332.70 C5.23,328.50 7.75,327.00 13.64,327.00 C15.57,327.00 20.83,326.14 25.32,325.09 C29.82,324.04 36.42,322.63 40.00,321.95 C43.58,321.28 48.96,320.12 51.96,319.37 C54.96,318.61 59.91,318.00 62.96,317.99 C66.81,317.99 69.42,317.38 71.50,316.00 L 71.58 315.95 C73.37,314.76 74.29,314.15 75.18,314.19 C76.14,314.23 77.06,315.02 78.98,316.63 C80.60,318.00 83.09,321.65 85.04,325.13 C87.05,329.38 87.91,332.21 87.59,333.51 C87.56,333.63 87.54,333.75 87.52,333.86 C86.59,335.16 83.97,336.09 77.19,337.51 ZM 644.46 205.73 C642.52,206.58 640.50,207.78 638.35,209.34 C634.06,212.14 629.76,215.44 627.89,217.50 C626.39,219.15 624.84,220.18 624.45,219.78 C623.51,218.84 625.92,213.08 628.21,210.79 C630.71,208.29 630.49,206.72 627.75,207.55 C624.13,208.66 623.54,209.16 617.50,216.18 L 611.75 222.85 L 604.43 223.54 C600.06,223.95 593.61,223.73 588.38,222.98 C583.22,222.25 576.44,222.01 571.83,222.39 L 564.02 223.04 L 565.08 220.77 C565.65,219.52 570.02,215.57 574.78,212.00 C579.54,208.43 584.12,204.65 584.97,203.61 C585.81,202.57 587.80,200.19 589.38,198.32 C590.97,196.46 592.09,194.82 591.88,194.68 C591.38,194.35 590.48,193.88 589.24,193.30 C592.50,194.32 593.93,193.85 596.12,192.19 C603.61,186.50 612.28,183.76 610.13,187.75 C609.12,189.63 605.57,192.31 594.50,199.60 C588.08,203.82 581.13,210.37 581.04,212.29 C580.99,213.21 599.14,212.50 603.52,211.41 C606.47,210.68 611.80,207.44 613.24,205.50 C613.65,204.95 612.98,203.64 611.74,202.58 C609.74,200.88 609.72,200.75 611.50,201.45 C616.83,203.53 620.41,203.84 623.11,202.44 C624.63,201.66 629.12,200.81 633.09,200.56 C637.06,200.31 642.45,199.56 645.07,198.89 C650.91,197.39 656.30,198.60 656.85,201.54 C657.06,202.62 659.35,205.76 661.96,208.53 C662.52,209.13 663.05,209.69 663.53,210.23 C662.59,209.33 661.50,208.42 660.26,207.47 C655.08,203.52 650.06,202.92 644.70,205.61 C644.62,205.65 644.54,205.69 644.46,205.73 ZM 423.00 272.94 C424.38,273.35 425.97,273.32 426.55,272.88 C427.13,272.44 428.55,272.33 429.70,272.63 C432.12,273.27 437.00,270.43 437.00,268.38 C437.00,267.62 436.66,266.99 436.25,266.98 C435.84,266.98 434.84,266.55 434.04,266.05 C432.77,265.25 432.80,264.88 434.22,263.31 C435.12,262.31 437.80,258.62 440.18,255.09 C445.35,247.42 448.74,246.00 462.00,245.94 C467.38,245.92 473.98,245.05 480.00,243.58 C497.02,239.41 511.00,237.27 511.00,238.82 C511.00,239.39 510.07,240.16 508.92,240.52 C507.78,240.89 507.05,241.38 507.29,241.62 C507.53,241.86 508.90,241.61 510.34,241.06 C512.03,240.42 512.76,239.55 512.40,238.61 C511.99,237.53 513.37,236.70 517.67,235.45 C520.88,234.51 525.17,233.13 527.21,232.40 C529.63,231.52 531.13,231.40 531.54,232.06 C531.84,232.54 534.13,231.06 536.88,228.66 C536.00,229.50 535.38,230.13 534.98,230.61 C534.36,231.23 533.95,231.66 533.80,231.88 C533.08,232.90 532.28,233.69 532.00,233.65 C530.54,233.41 432.14,272.57 430.66,273.98 C430.20,274.42 430.31,275.08 430.91,275.45 C431.51,275.82 432.00,276.61 432.00,277.21 C432.00,277.42 431.90,277.53 431.74,277.55 C431.55,277.18 431.11,276.58 430.42,275.75 C429.37,274.51 428.48,273.38 428.42,273.24 C428.37,273.10 427.46,274.00 426.41,275.23 C424.75,277.17 424.74,277.28 426.30,276.07 C427.79,274.92 428.28,274.89 429.57,276.14 C428.41,275.25 427.81,275.49 425.46,277.03 C421.59,279.59 421.00,279.51 421.00,276.44 C421.00,274.99 420.57,274.15 420.00,274.50 C419.45,274.84 419.00,274.38 419.00,273.48 C419.00,271.59 413.03,263.94 408.20,259.64 C405.07,256.85 404.26,254.69 405.92,252.52 L 410.29 256.38 C412.85,258.65 416.04,261.99 417.38,263.81 L 419.80 267.12 L 420.45 263.29 C421.17,259.06 422.97,255.28 422.97,258.00 C422.98,258.83 422.31,261.71 421.49,264.40 C420.38,268.05 420.29,269.65 421.12,270.65 C421.74,271.39 421.85,272.04 421.37,272.10 C420.89,272.15 421.62,272.53 423.00,272.94 ZM 611.15 284.83 L 610.50 285.04 C606.10,286.52 599.35,288.31 595.50,289.03 C591.31,289.81 587.50,291.20 586.00,292.49 C582.64,295.38 578.33,298.00 576.94,298.00 C576.32,298.00 574.61,298.85 573.15,299.88 C572.08,300.64 569.82,301.48 567.49,302.03 C566.74,302.17 565.99,302.31 565.26,302.46 C565.17,302.48 565.09,302.49 565.00,302.50 C561.97,302.91 558.38,304.03 557.00,304.99 C555.63,305.95 552.25,307.05 549.50,307.45 L 549.50 307.45 C549.36,307.47 549.20,307.49 549.04,307.52 C549.26,307.43 549.45,307.34 549.61,307.23 C550.22,306.83 550.61,305.78 550.47,304.90 C550.30,303.84 552.52,302.06 557.09,299.59 C564.31,295.69 565.66,294.52 564.06,293.54 C562.39,292.50 556.06,295.78 554.92,298.27 C553.83,300.67 551.65,301.14 549.08,299.55 C548.25,299.03 547.92,299.07 548.27,299.64 C548.60,300.16 547.20,300.65 545.18,300.75 C541.59,300.91 529.20,304.78 531.81,304.93 C532.53,304.97 532.80,305.51 532.41,306.15 C532.01,306.79 532.52,307.91 533.54,308.65 C534.64,309.45 535.96,309.85 537.19,309.88 C536.79,309.98 536.39,310.07 536.00,310.16 C535.00,310.39 533.95,310.63 532.89,310.87 C528.53,311.78 523.29,312.66 520.00,313.02 C515.88,313.47 511.60,314.14 510.50,314.50 C508.63,315.12 508.61,315.07 510.25,313.72 C511.21,312.93 515.26,311.24 519.25,309.98 C523.24,308.72 525.96,307.50 525.31,307.28 C524.65,307.05 523.22,307.35 522.12,307.94 C521.03,308.52 519.31,308.99 518.32,308.98 C516.76,308.97 516.71,308.82 518.00,307.89 C518.10,307.82 518.20,307.75 518.29,307.68 C518.74,307.36 519.03,307.15 519.01,307.09 C518.95,306.96 517.74,307.33 514.23,308.42 C513.85,308.54 513.44,308.67 513.00,308.80 C512.94,308.82 512.88,308.84 512.81,308.86 C513.50,308.58 514.22,308.26 514.91,307.93 C517.27,306.79 519.80,306.09 520.53,306.37 C521.27,306.66 522.01,306.52 522.19,306.06 C522.63,304.90 545.01,297.89 546.10,298.56 C546.60,298.87 547.00,298.69 547.00,298.16 C547.00,297.63 548.39,296.71 550.09,296.12 C551.79,295.53 553.41,294.13 553.70,293.02 C554.00,291.91 554.63,291.00 555.12,291.00 C555.60,291.00 556.00,290.51 556.00,289.91 C556.00,289.35 555.09,289.08 553.02,289.14 C558.93,288.57 561.90,287.65 567.10,284.76 C571.04,282.59 574.50,281.32 575.68,281.63 C578.17,282.28 587.99,276.30 588.03,274.10 C588.07,272.00 593.12,266.50 596.68,264.68 C598.23,263.89 600.94,263.41 602.69,263.61 C607.14,264.11 611.18,260.51 612.76,254.61 C614.74,247.22 616.32,248.72 615.63,257.10 C615.59,257.03 615.55,257.00 615.49,257.00 C615.19,257.00 612.14,259.17 608.72,261.82 C605.30,264.47 596.31,270.78 588.75,275.84 C575.78,284.51 573.62,286.74 576.88,288.06 C579.72,289.21 584.64,287.57 591.76,283.11 C604.33,275.22 606.25,274.05 609.46,272.55 C609.26,272.71 609.06,272.87 608.86,273.04 L 606.50 275.08 L 612.50 274.79 L 617.70 274.54 C618.05,274.97 618.31,275.41 618.50,275.89 L 618.50 280.77 C618.00,282.25 616.76,282.85 613.00,284.17 C612.37,284.39 611.75,284.61 611.15,284.83 ZM 378.45 166.27 C384.69,165.80 391.95,165.31 398.00,164.95 C408.17,164.34 419.88,163.18 424.00,162.37 C428.12,161.55 436.45,160.65 442.50,160.37 L 453.50 159.85 L 450.35 162.68 C448.62,164.23 446.69,166.52 446.06,167.77 C445.43,169.01 442.90,170.98 440.45,172.13 C437.29,173.61 435.80,175.00 435.35,176.86 C435.01,178.31 432.65,181.43 430.11,183.80 C427.58,186.16 426.40,187.66 427.50,187.13 C428.60,186.60 430.42,185.29 431.55,184.23 C433.18,182.69 437.01,180.58 441.44,178.63 C438.51,180.01 435.74,181.59 433.02,183.38 C428.99,186.04 421.75,192.42 412.28,201.64 C409.12,204.70 405.94,207.86 402.93,210.92 C393.92,219.90 387.27,226.34 387.63,225.73 C388.60,224.09 396.41,214.82 402.00,208.68 C404.48,205.96 406.41,203.41 406.30,203.02 C406.19,202.63 407.88,200.34 410.05,197.94 C412.22,195.54 414.00,193.22 414.00,192.79 C414.00,191.02 414.65,190.23 421.35,183.80 C427.52,177.88 428.31,176.70 428.20,173.60 C428.12,171.68 427.38,169.29 426.55,168.30 C425.72,167.31 424.47,165.74 423.77,164.81 C422.63,163.30 421.27,163.23 410.50,164.07 C403.90,164.59 391.30,165.46 382.50,166.00 C381.23,166.08 379.87,166.17 378.45,166.27 ZM 221.49 290.98 C221.14,290.42 222.55,288.50 224.62,286.73 C226.69,284.95 231.38,280.73 235.04,277.35 C238.71,273.97 243.23,270.42 245.10,269.45 C246.97,268.48 250.68,266.19 253.36,264.35 C258.21,261.01 264.18,259.86 265.50,262.00 C265.84,262.55 267.22,263.00 268.56,263.00 C269.90,263.00 271.00,263.41 271.00,263.92 C271.00,264.42 271.27,265.55 271.61,266.42 C272.05,267.58 271.18,268.45 268.39,269.61 C266.28,270.49 260.94,273.26 256.53,275.77 C245.69,281.92 228.12,290.56 224.81,291.36 C223.32,291.72 221.84,291.55 221.49,290.98 ZM 462.20 316.57 C461.79,316.05 461.38,315.51 460.97,314.96 C458.10,311.09 456.02,307.65 456.34,307.32 C456.67,307.00 458.59,306.55 460.61,306.33 C465.31,305.81 467.84,304.45 471.25,300.60 C477.47,293.60 481.80,290.20 486.08,288.98 C488.64,288.24 489.80,288.48 492.36,290.29 C494.09,291.50 495.65,293.17 495.83,293.99 C496.01,294.81 496.61,295.76 497.16,296.10 C498.88,297.16 511.68,296.00 525.02,293.59 C522.84,294.01 520.53,294.47 518.08,294.95 C509.60,296.63 501.15,298.00 499.30,298.00 C497.44,298.00 491.17,300.15 485.22,302.82 C479.33,305.47 471.25,308.91 467.28,310.46 C462.81,312.21 460.31,313.71 460.71,314.40 C460.92,314.75 461.49,315.59 462.20,316.57 ZM 334.38 161.55 C335.05,163.30 337.28,163.36 345.85,161.87 C350.94,160.98 352.05,160.49 350.93,159.62 C349.03,158.13 348.49,154.00 350.19,153.98 C351.21,153.97 351.19,153.77 350.10,153.09 C349.34,152.60 348.97,151.52 349.29,150.68 C349.61,149.85 349.34,148.97 348.69,148.72 C347.27,148.19 333.95,149.72 333.16,150.50 C332.86,150.80 333.18,152.61 333.87,154.52 C334.56,156.43 334.83,158.46 334.47,159.04 C334.12,159.62 334.07,160.75 334.38,161.55 ZM 356.10 115.75 C355.94,119.36 354.54,118.35 353.14,113.61 C352.34,110.91 352.11,107.48 352.52,104.70 C353.45,98.49 352.36,94.00 349.92,94.00 C348.39,94.00 348.00,93.29 348.00,90.50 C348.00,88.41 348.51,86.96 349.25,86.91 C349.94,86.86 349.04,86.40 347.25,85.88 C342.79,84.59 343.17,83.00 347.93,83.00 C353.49,83.00 357.00,84.54 357.00,86.98 C357.00,88.09 356.55,89.00 356.00,89.00 C354.85,89.00 354.63,93.65 355.75,94.35 C356.37,94.73 356.55,105.97 356.10,115.75 ZM 165.04 248.07 C166.36,250.53 168.65,250.51 172.78,247.99 C176.80,245.54 177.71,243.47 175.77,241.21 C174.97,240.27 174.02,238.71 173.68,237.75 C172.89,235.50 168.27,235.44 165.83,237.65 C163.80,239.49 163.38,244.97 165.04,248.07 ZM 435.79 244.13 C437.25,243.27 439.39,241.58 441.49,239.72 L 441.49 239.72 C445.25,236.47 448.92,232.67 448.48,231.97 C448.22,231.55 448.76,230.92 449.68,230.57 C450.59,230.22 451.65,230.44 452.04,231.06 C452.04,231.07 452.04,231.07 452.05,231.08 C452.55,231.86 453.66,231.71 455.92,230.54 C456.94,230.01 458.96,229.42 461.27,228.92 C455.97,230.14 452.59,232.17 452.14,234.55 C451.94,235.62 451.14,236.87 450.37,237.31 C449.59,237.76 449.20,238.51 449.49,238.98 C450.21,240.14 445.18,244.00 442.95,244.00 C441.97,244.00 441.00,243.49 440.79,242.87 C440.53,242.10 439.29,242.34 436.96,243.59 C436.60,243.78 436.21,243.96 435.79,244.13 ZM 516.69 282.35 C514.85,280.52 516.34,276.91 520.66,272.71 C525.79,267.72 529.03,267.24 526.49,271.85 C524.07,276.26 519.57,282.32 518.44,282.69 C517.85,282.88 517.07,282.73 516.69,282.35 ZM 73.87 454.90 C75.76,453.38 89.70,451.36 90.79,452.46 C91.06,452.73 90.74,453.61 90.08,454.40 C89.24,455.41 86.27,455.96 80.38,456.18 C72.46,456.48 72.02,456.39 73.87,454.90 ZM 482.97 377.54 C482.05,378.65 483.45,378.79 491.18,378.38 C496.30,378.10 501.62,377.61 503.00,377.28 C505.24,376.75 505.08,376.60 501.50,375.86 C496.20,374.77 484.38,375.84 482.97,377.54 ZM 549.78 217.29 C550.94,216.15 551.61,215.17 551.40,214.84 C551.10,214.36 550.49,214.20 550.04,214.48 C549.58,214.76 548.97,214.37 548.68,213.61 C548.39,212.85 545.65,210.80 542.60,209.06 C536.70,205.68 533.66,202.74 538.84,205.42 C540.52,206.29 542.51,207.00 543.25,207.00 C544.61,207.00 547.68,209.05 551.16,212.29 C552.83,213.84 553.13,213.99 555.10,212.62 C554.09,213.51 553.09,214.41 552.09,215.29 C551.36,215.93 550.59,216.59 549.78,217.29 ZM 386.00 230.81 C386.29,230.86 386.74,230.93 387.30,231.03 C387.37,231.05 387.45,231.07 387.53,231.09 C387.02,231.02 386.51,230.95 386.00,230.88 C380.46,230.16 379.43,232.46 383.65,234.26 C381.10,233.77 378.55,234.18 376.01,235.50 C372.99,237.05 371.57,236.29 372.58,233.65 C373.15,232.18 382.55,230.18 386.00,230.81 ZM 473.75 211.34 C472.24,210.54 471.00,209.23 471.00,208.42 C471.00,207.13 471.34,207.13 473.82,208.41 C477.38,210.25 479.91,213.05 477.87,212.89 C477.12,212.84 475.26,212.14 473.75,211.34 ZM 62.95 14.05 C64.09,13.33 63.83,13.00 61.75,12.47 C59.00,11.78 57.00,12.45 57.00,14.06 C57.00,15.26 61.05,15.26 62.95,14.05 ZM 206.75 428.25 C206.99,427.52 206.32,427.00 205.14,427.00 C202.96,427.00 201.64,428.31 202.73,429.40 C203.73,430.40 206.28,429.68 206.75,428.25 ZM 285.67 452.33 C284.29,450.95 285.09,450.00 287.62,450.00 C289.84,450.00 290.05,450.23 289.00,451.50 C287.65,453.13 286.70,453.37 285.67,452.33 ZM 717.24 390.25 C719.10,390.88 722.06,389.91 721.43,388.89 C720.71,387.72 717.28,387.74 716.55,388.91 C716.24,389.42 716.55,390.02 717.24,390.25 ZM 64.51 456.99 C64.85,456.43 66.42,456.08 68.00,456.20 C71.73,456.48 70.79,458.00 66.88,458.00 C65.12,458.00 64.14,457.58 64.51,456.99 ZM 465.00 364.00 C465.00,364.55 466.16,365.00 467.58,365.00 C469.00,365.00 470.01,364.52 469.81,363.92 C469.61,363.33 469.12,362.88 468.73,362.92 C468.33,362.97 467.33,363.00 466.50,363.00 C465.67,363.00 465.00,363.45 465.00,364.00 ZM 539.82 309.30 C540.54,308.88 541.00,308.23 541.00,307.39 C541.00,306.63 541.45,306.00 542.00,306.00 C542.55,306.00 543.00,306.45 543.00,307.00 C543.00,307.68 544.72,308.02 546.48,307.96 C544.52,308.32 542.15,308.80 539.82,309.30 ZM 297.00 451.00 C297.00,450.45 297.87,450.00 298.94,450.00 C300.01,450.00 301.16,450.45 301.50,451.00 C301.85,451.57 301.01,452.00 299.56,452.00 C298.15,452.00 297.00,451.55 297.00,451.00 ZM 546.64 301.30 C547.05,301.71 546.62,302.81 545.69,303.74 C543.88,305.55 543.42,304.46 544.96,302.03 C545.47,301.22 546.23,300.89 546.64,301.30 ZM 365.74 439.31 C364.81,438.38 363.71,437.95 363.30,438.36 C362.89,438.77 363.22,439.53 364.03,440.04 C366.46,441.58 367.55,441.12 365.74,439.31 ZM 391.00 445.00 C391.00,444.45 390.33,444.00 389.50,444.00 C388.67,444.00 388.00,444.45 388.00,445.00 C388.00,445.55 388.67,446.00 389.50,446.00 C390.33,446.00 391.00,445.55 391.00,445.00 ZM 453.04 174.40 C453.44,174.29 453.82,174.18 454.20,174.09 C466.45,170.97 481.01,169.91 505.50,170.34 C520.97,170.62 526.24,170.76 531.14,171.80 C526.86,170.92 522.12,170.69 510.28,170.47 C508.50,170.43 506.58,170.40 504.50,170.36 C481.08,169.98 465.34,171.07 453.04,174.40 ZM 508.88 310.00 C506.65,310.64 503.95,311.39 501.50,312.05 C499.41,312.62 497.57,313.12 495.82,313.61 C498.66,312.76 501.38,311.92 502.93,311.42 C505.27,310.67 507.89,310.05 508.88,310.00 ZM 354.73 163.40 C355.06,163.73 354.47,163.96 353.42,163.92 C352.25,163.87 352.01,163.64 352.81,163.32 C353.53,163.03 354.40,163.06 354.73,163.40 ZM 266.81 261.32 C267.53,261.03 268.40,261.06 268.73,261.40 C269.06,261.73 268.47,261.96 267.42,261.92 C266.25,261.87 266.01,261.64 266.81,261.32 ZM 514.81 309.32 C515.53,309.03 516.40,309.06 516.73,309.40 C517.06,309.73 516.47,309.96 515.42,309.92 C514.25,309.87 514.01,309.64 514.81,309.32 ZM 612.44 271.00 C613.80,270.02 614.15,268.85 614.52,266.00 C614.74,264.34 615.02,262.42 615.27,260.97 C614.47,268.75 613.80,271.00 612.49,271.00 C612.47,271.00 612.46,271.00 612.44,271.00 ZM 545.51 176.18 C554.65,179.32 565.92,183.55 574.46,187.05 C565.22,183.37 554.11,179.17 545.51,176.18 ZM 423.79 246.00 C419.53,246.24 417.00,246.47 415.03,246.98 C417.34,246.20 419.61,246.01 423.79,246.00 ZM 562.96 205.50 C564.70,203.54 565.70,202.01 564.95,202.02 C565.97,202.03 565.77,202.74 563.36,205.14 C563.23,205.26 563.09,205.38 562.96,205.50 ZM 389.96 235.06 C389.32,236.10 388.64,236.14 386.62,235.24 C388.72,235.79 389.58,235.68 390.05,234.92 C390.18,234.70 390.38,234.54 390.68,234.43 C390.36,234.57 390.14,234.78 389.96,235.06 ZM 667.37 215.14 C668.95,217.82 669.23,220.24 669.11,224.43 C669.21,220.67 668.72,217.76 667.37,215.14 ZM 539.79 226.02 C542.43,223.63 545.39,221.03 547.30,219.45 C546.39,220.24 545.51,221.02 544.65,221.78 L 544.65 221.78 C542.72,223.45 541.12,224.84 539.79,226.02 ZM 521.00 341.67 C521.70,341.58 522.48,341.46 523.56,341.26 C521.94,341.57 520.76,341.77 519.62,341.93 C518.98,342.03 518.18,342.17 517.27,342.34 C518.89,342.01 520.19,341.77 521.00,341.67 ZM 410.23 249.23 C410.14,249.29 410.06,249.34 409.97,249.40 L 407.19 251.24 C407.98,250.59 408.99,249.92 410.23,249.23 ZM 480.92 318.11 C479.60,318.53 478.17,318.98 476.62,319.48 C475.22,319.93 473.84,320.35 472.59,320.72 C473.70,320.39 474.90,320.02 476.12,319.63 C477.49,319.19 479.15,318.66 480.92,318.11 ZM 561.00 204.00 C562.38,202.92 564.13,202.03 564.90,202.02 C564.15,202.03 562.38,202.92 561.00,204.00 ZM 543.63 290.24 C543.03,290.33 542.42,290.43 541.77,290.54 L 542.00 290.49 C542.41,290.42 542.97,290.33 543.63,290.24 ZM 467.48 322.00 L 467.47 322.00 C467.45,322.00 467.43,322.00 467.41,321.99 C467.43,322.00 467.46,322.00 467.48,322.00 Z" fill="rgb(205,74,16)"/>
<path d="M 667.56 404.78 C666.70,403.56 666.00,401.87 665.99,401.03 C665.99,400.19 665.13,398.20 664.08,396.61 C662.75,394.59 662.34,392.70 662.72,390.36 C663.13,387.82 662.90,387.00 661.79,387.00 C660.97,387.00 659.50,386.10 658.50,385.00 C657.22,383.59 655.42,383.00 652.36,383.00 C648.35,383.00 647.92,383.26 646.56,386.50 C645.23,389.70 644.75,390.00 640.97,390.00 C636.92,390.00 636.85,389.94 637.13,386.72 C637.34,384.29 636.69,382.63 634.60,380.28 L 631.78 377.12 L 622.21 377.50 C615.35,377.77 611.65,377.46 609.14,376.41 C606.84,375.45 602.69,375.01 597.07,375.12 C592.36,375.22 587.69,374.95 586.71,374.52 C585.72,374.10 583.47,373.97 581.71,374.24 C577.77,374.84 576.00,374.28 576.00,372.42 C576.00,370.81 571.92,370.48 570.44,371.96 C569.82,372.58 565.54,372.55 558.49,371.88 C545.90,370.68 538.31,370.60 525.32,371.53 L 516.15 372.19 L 513.57 368.12 C512.16,365.87 511.00,363.57 511.00,363.00 C511.00,361.13 505.70,359.83 495.81,359.27 C488.05,358.83 485.43,359.04 482.66,360.36 C478.83,362.17 473.00,362.56 473.00,361.00 C473.00,360.45 473.56,359.99 474.25,359.98 C475.08,359.97 475.00,359.65 474.00,359.00 C472.91,358.30 472.86,358.03 473.81,358.02 C474.53,358.01 474.84,357.55 474.50,357.00 C473.62,355.58 475.36,355.76 476.86,357.25 C477.87,358.25 477.99,358.15 477.45,356.75 C476.51,354.28 480.37,351.38 486.50,349.94 C489.25,349.30 496.45,347.43 502.50,345.80 C508.55,344.16 516.25,342.42 519.62,341.93 C526.57,340.92 535.33,338.83 633.00,314.83 C642.08,312.60 651.10,309.97 653.04,308.97 C657.90,306.50 664.11,299.53 667.29,292.97 C672.30,282.65 673.48,275.99 673.37,258.50 C673.29,244.58 672.99,241.76 671.08,236.80 C669.52,232.74 668.95,229.27 669.10,224.76 C669.33,217.40 668.48,215.45 661.96,208.53 C659.35,205.76 657.06,202.62 656.85,201.54 C656.30,198.60 650.91,197.39 645.07,198.89 C642.45,199.56 637.06,200.31 633.09,200.56 C629.12,200.81 624.63,201.66 623.11,202.44 C620.41,203.84 616.83,203.53 611.50,201.45 C609.72,200.75 609.74,200.88 611.74,202.58 C612.98,203.64 613.65,204.95 613.24,205.50 C611.80,207.44 606.47,210.68 603.52,211.41 C599.14,212.50 580.99,213.21 581.04,212.29 C581.13,210.37 588.08,203.82 594.50,199.60 C605.57,192.31 609.12,189.63 610.13,187.75 C612.28,183.76 603.61,186.50 596.12,192.19 C592.80,194.71 591.21,194.50 582.31,190.42 C572.37,185.86 550.28,177.53 538.00,173.71 C528.87,170.86 527.60,170.73 505.50,170.34 C481.01,169.91 466.45,170.97 454.20,174.09 C446.10,176.15 434.71,181.25 431.55,184.23 C430.42,185.29 428.60,186.60 427.50,187.13 C426.40,187.66 427.58,186.16 430.11,183.80 C432.65,181.43 435.01,178.31 435.35,176.86 C435.80,175.00 437.29,173.61 440.45,172.13 C442.90,170.98 445.43,169.01 446.06,167.77 C446.69,166.52 448.62,164.23 450.35,162.68 L 453.50 159.85 L 442.50 160.37 C436.45,160.65 428.12,161.55 424.00,162.37 C419.88,163.18 408.17,164.34 398.00,164.95 C387.83,165.56 374.24,166.54 367.82,167.13 C355.75,168.24 347.62,167.64 348.27,165.70 C348.47,165.09 350.46,163.67 352.68,162.54 C356.16,160.79 356.69,160.10 356.42,157.65 C356.12,154.83 353.62,152.09 351.28,152.03 C350.61,152.01 350.30,151.38 350.59,150.63 C350.88,149.87 350.41,148.56 349.56,147.70 C347.27,145.41 347.60,145.00 351.75,144.99 C356.68,144.97 360.42,142.99 360.82,140.20 C361.03,138.75 360.68,138.05 359.82,138.23 C358.96,138.40 358.50,137.46 358.50,135.50 C358.50,133.56 358.96,132.60 359.81,132.77 C360.73,132.96 361.00,132.08 360.73,129.77 C360.37,126.70 360.11,126.50 356.42,126.50 C354.27,126.50 351.39,125.71 350.03,124.75 C348.67,123.79 347.04,123.00 346.40,123.00 C345.77,123.00 343.22,122.10 340.72,121.00 C335.49,118.68 332.59,114.46 332.13,108.50 C331.97,106.30 331.04,103.60 330.08,102.50 C325.45,97.22 324.85,88.26 329.00,86.35 C331.44,85.22 331.50,84.91 331.57,74.35 C331.61,68.38 332.17,61.03 332.82,58.00 C333.66,54.07 333.72,50.44 333.01,45.28 C332.37,40.53 332.37,37.17 333.01,35.46 C334.75,30.89 334.23,21.56 332.08,18.83 C330.21,16.45 330.21,16.35 332.01,15.23 C333.81,14.10 333.81,13.96 332.02,10.29 C330.82,7.81 330.49,5.96 331.06,4.89 C331.54,4.00 331.65,2.98 331.30,2.63 C330.95,2.28 422.99,2.00 535.83,2.00 L 741.00 2.00 L 741.00 193.90 L 741.00 385.80 L 738.25 386.73 C736.74,387.24 733.09,387.77 730.14,387.91 C726.05,388.10 724.88,387.85 725.22,386.83 C725.46,386.10 726.86,385.36 728.33,385.18 C732.09,384.74 731.65,383.51 727.25,382.21 C719.95,380.05 714.48,380.01 707.37,382.04 C703.60,383.12 698.48,384.01 696.00,384.02 C693.53,384.02 691.01,384.36 690.42,384.77 C688.52,386.06 686.00,392.21 686.00,395.55 C686.00,397.50 685.41,399.01 684.50,399.36 C683.67,399.68 682.99,400.51 682.99,401.22 C682.97,403.30 676.31,407.00 672.57,407.00 C670.13,407.00 668.65,406.35 667.56,404.78 ZM 678.00 231.50 C678.00,230.74 677.55,229.84 677.00,229.50 C676.43,229.15 676.00,230.01 676.00,231.50 C676.00,232.99 676.43,233.85 677.00,233.50 C677.55,233.16 678.00,232.26 678.00,231.50 ZM 354.73 163.40 C354.40,163.06 353.53,163.03 352.81,163.32 C352.01,163.64 352.25,163.87 353.42,163.92 C354.47,163.96 355.06,163.73 354.73,163.40 ZM 356.10 115.75 C356.55,105.97 356.37,94.73 355.75,94.35 C354.63,93.65 354.85,89.00 356.00,89.00 C356.55,89.00 357.00,88.09 357.00,86.98 C357.00,84.54 353.49,83.00 347.93,83.00 C343.17,83.00 342.79,84.59 347.25,85.88 C349.04,86.40 349.94,86.86 349.25,86.91 C348.51,86.96 348.00,88.41 348.00,90.50 C348.00,93.29 348.39,94.00 349.92,94.00 C352.36,94.00 353.45,98.49 352.52,104.70 C352.11,107.48 352.34,110.91 353.14,113.61 C354.54,118.35 355.94,119.36 356.10,115.75 ZM 717.24 390.25 C716.55,390.02 716.24,389.42 716.55,388.91 C717.28,387.74 720.71,387.72 721.43,388.89 C722.06,389.91 719.10,390.88 717.24,390.25 ZM 482.97 377.54 C484.38,375.84 496.20,374.77 501.50,375.86 C505.08,376.60 505.24,376.75 503.00,377.28 C501.62,377.61 496.30,378.10 491.18,378.38 C483.45,378.79 482.05,378.65 482.97,377.54 ZM 465.00 364.00 C465.00,363.45 465.67,363.00 466.50,363.00 C467.33,363.00 468.33,362.97 468.73,362.92 C469.12,362.88 469.61,363.33 469.81,363.92 C470.01,364.52 469.00,365.00 467.58,365.00 C466.16,365.00 465.00,364.55 465.00,364.00 ZM 289.39 339.25 C285.68,336.09 279.15,330.19 274.88,326.14 L 267.12 318.77 L 254.81 319.96 C248.04,320.61 236.88,321.76 230.00,322.51 C209.13,324.80 199.66,325.36 200.34,324.26 C200.68,323.71 203.78,322.97 207.23,322.61 C210.68,322.25 217.55,321.50 222.50,320.94 C227.45,320.37 239.28,319.07 248.78,318.04 L 266.06 316.17 L 280.67 302.00 C294.60,288.50 309.48,276.15 310.55,277.22 C310.82,277.49 308.00,280.34 304.27,283.56 C293.97,292.44 271.00,315.25 271.00,316.59 C271.00,317.25 277.08,323.55 284.50,330.59 C291.92,337.64 298.00,343.76 298.00,344.20 C298.00,345.98 295.80,344.72 289.39,339.25 ZM 93.00 336.00 C93.00,335.45 94.15,335.00 95.56,335.00 C97.01,335.00 97.85,335.43 97.50,336.00 C97.16,336.55 96.01,337.00 94.94,337.00 C93.87,337.00 93.00,336.55 93.00,336.00 ZM 88.00 321.25 C85.17,319.83 84.48,318.90 84.40,316.37 C84.35,314.64 83.30,311.83 82.09,310.12 C78.83,305.54 78.37,301.00 80.85,297.98 C82.84,295.57 82.88,295.56 82.34,297.74 C82.03,298.96 82.08,300.76 82.45,301.74 C82.82,302.71 83.02,303.50 82.90,303.50 C82.77,303.50 83.20,304.51 83.87,305.75 C84.53,306.99 85.42,308.00 85.84,308.00 C86.26,308.00 88.03,304.51 89.78,300.25 C96.58,283.65 110.35,263.93 121.85,254.32 C130.66,246.97 138.71,241.80 140.76,242.19 C141.92,242.42 138.08,247.23 127.73,258.51 C119.65,267.30 110.67,277.08 107.77,280.24 C104.68,283.61 102.48,286.94 102.45,288.31 C102.40,290.44 99.08,296.11 96.48,298.50 C95.88,299.05 94.31,301.98 92.98,305.00 C91.65,308.02 89.76,311.57 88.78,312.88 C86.32,316.19 86.53,317.43 90.08,320.41 C93.66,323.42 92.94,323.71 88.00,321.25 ZM 463.80 318.75 C462.46,316.96 461.07,315.00 460.71,314.40 C460.31,313.71 462.81,312.21 467.28,310.46 C471.25,308.91 479.33,305.47 485.22,302.82 C491.17,300.15 497.44,298.00 499.30,298.00 C501.15,298.00 509.60,296.63 518.08,294.95 C546.41,289.35 556.00,288.08 556.00,289.91 C556.00,290.51 555.60,291.00 555.12,291.00 C554.63,291.00 554.00,291.91 553.70,293.02 C553.41,294.13 551.79,295.53 550.09,296.12 C548.39,296.71 547.00,297.63 547.00,298.16 C547.00,298.69 546.60,298.87 546.10,298.56 C545.01,297.89 522.63,304.90 522.19,306.06 C522.01,306.52 521.27,306.66 520.53,306.37 C519.80,306.09 517.27,306.79 514.91,307.93 C512.55,309.07 509.89,310.00 508.99,310.00 C508.09,310.00 505.36,310.64 502.93,311.42 C500.49,312.21 495.12,313.84 491.00,315.05 C486.88,316.26 480.18,318.32 476.12,319.63 C472.06,320.93 468.18,322.00 467.49,322.00 C466.80,322.00 465.14,320.54 463.80,318.75 ZM 568.46 313.93 C567.52,312.41 567.90,312.22 575.06,310.55 C578.60,309.73 585.17,308.05 589.65,306.82 C597.76,304.59 597.82,304.59 601.38,306.51 C603.35,307.57 604.63,308.72 604.23,309.07 C603.37,309.81 574.52,315.01 571.31,315.01 C570.10,315.00 568.82,314.52 568.46,313.93 ZM 533.54 308.65 C532.52,307.91 532.01,306.79 532.41,306.15 C532.80,305.51 532.53,304.97 531.81,304.93 C529.20,304.78 541.59,300.91 545.18,300.75 C547.20,300.65 548.60,300.16 548.27,299.64 C547.92,299.07 548.25,299.03 549.08,299.55 C551.65,301.14 553.83,300.67 554.92,298.27 C556.06,295.78 562.39,292.50 564.06,293.54 C565.66,294.52 564.31,295.69 557.09,299.59 C552.52,302.06 550.30,303.84 550.47,304.90 C550.61,305.78 550.22,306.83 549.61,307.23 C547.96,308.33 543.00,308.15 543.00,307.00 C543.00,306.45 542.55,306.00 542.00,306.00 C541.45,306.00 541.00,306.63 541.00,307.39 C541.00,310.02 536.45,310.78 533.54,308.65 ZM 546.64 301.30 C546.23,300.89 545.47,301.22 544.96,302.03 C543.42,304.46 543.88,305.55 545.69,303.74 C546.62,302.81 547.05,301.71 546.64,301.30 ZM 285.35 289.75 C283.11,284.56 286.58,281.91 289.60,286.51 C290.92,288.52 291.00,289.30 290.00,290.51 C288.23,292.64 286.47,292.35 285.35,289.75 ZM 576.88 288.06 C573.62,286.74 575.78,284.51 588.75,275.84 C596.31,270.78 605.30,264.47 608.72,261.82 C612.14,259.17 615.19,257.00 615.49,257.00 C615.79,257.00 615.83,258.01 615.57,259.25 C615.32,260.49 614.85,263.52 614.52,266.00 C614.00,270.00 613.52,270.69 610.22,272.20 C606.48,273.91 605.28,274.62 591.76,283.11 C584.64,287.57 579.72,289.21 576.88,288.06 ZM 429.76 276.34 C428.32,274.90 427.86,274.86 426.30,276.07 C424.74,277.28 424.75,277.17 426.41,275.23 C427.46,274.00 428.37,273.10 428.42,273.24 C428.48,273.38 429.37,274.51 430.42,275.75 C432.62,278.37 432.19,278.76 429.76,276.34 ZM 647.67 277.33 C647.30,276.97 647.00,276.01 647.00,275.21 C647.00,274.03 647.28,273.99 648.50,275.00 C649.33,275.68 650.00,276.64 650.00,277.12 C650.00,278.16 648.62,278.28 647.67,277.33 ZM 423.00 272.94 C421.62,272.53 420.89,272.15 421.37,272.10 C421.85,272.04 421.74,271.39 421.12,270.65 C420.29,269.65 420.38,268.05 421.49,264.40 C422.31,261.71 422.98,258.83 422.97,258.00 C422.97,255.28 421.17,259.06 420.45,263.29 L 419.80 267.12 L 417.38 263.81 C416.04,261.99 412.85,258.65 410.29,256.38 L 405.64 252.27 L 409.97 249.40 C413.76,246.90 415.51,246.47 423.90,245.99 C430.51,245.62 434.58,244.87 436.96,243.59 C439.29,242.34 440.53,242.10 440.79,242.87 C441.00,243.49 441.97,244.00 442.95,244.00 C445.18,244.00 450.21,240.14 449.49,238.98 C449.20,238.51 449.59,237.76 450.37,237.31 C451.14,236.87 451.94,235.62 452.14,234.55 C452.72,231.49 458.17,229.00 466.31,228.08 C470.43,227.62 474.29,226.94 474.90,226.56 C476.91,225.32 476.07,223.84 473.75,224.56 C471.10,225.37 471.55,224.77 474.87,223.04 C476.40,222.24 477.00,222.19 476.56,222.90 C475.68,224.32 475.66,224.33 481.51,222.12 C484.26,221.09 490.33,218.81 495.00,217.07 C506.62,212.72 519.98,204.85 524.53,199.67 C525.09,199.03 526.78,197.41 528.28,196.08 L 531.00 193.65 L 533.25 195.66 C534.49,196.76 537.75,198.96 540.50,200.54 C544.57,202.89 546.65,203.41 551.66,203.37 C556.40,203.34 557.69,203.63 557.30,204.66 C556.57,206.55 558.08,206.28 561.00,204.00 C562.38,202.92 564.15,202.03 564.95,202.02 C566.53,202.00 560.30,208.87 555.79,212.12 C553.18,214.00 553.01,214.01 551.16,212.29 C547.68,209.05 544.61,207.00 543.25,207.00 C542.51,207.00 540.52,206.29 538.84,205.42 C533.66,202.74 536.70,205.68 542.60,209.06 C545.65,210.80 548.39,212.85 548.68,213.61 C548.97,214.37 549.58,214.76 550.04,214.48 C550.49,214.20 551.10,214.36 551.40,214.84 C551.70,215.32 550.17,217.13 548.02,218.87 C545.86,220.60 541.41,224.51 538.13,227.54 C534.84,230.59 531.88,232.61 531.54,232.06 C531.13,231.40 529.63,231.52 527.21,232.40 C525.17,233.13 520.88,234.51 517.67,235.45 C513.37,236.70 511.99,237.53 512.40,238.61 C512.76,239.55 512.03,240.42 510.34,241.06 C508.90,241.61 507.53,241.86 507.29,241.62 C507.05,241.38 507.78,240.89 508.92,240.52 C510.07,240.16 511.00,239.39 511.00,238.82 C511.00,237.27 497.02,239.41 480.00,243.58 C473.98,245.05 467.38,245.92 462.00,245.94 C448.74,246.00 445.35,247.42 440.18,255.09 C437.80,258.62 435.12,262.31 434.22,263.31 C432.80,264.88 432.77,265.25 434.04,266.05 C434.84,266.55 435.84,266.98 436.25,266.98 C436.66,266.99 437.00,267.62 437.00,268.38 C437.00,270.43 432.12,273.27 429.70,272.63 C428.55,272.33 427.13,272.44 426.55,272.88 C425.97,273.32 424.38,273.35 423.00,272.94 ZM 165.04 248.07 C163.38,244.97 163.80,239.49 165.83,237.65 C168.27,235.44 172.89,235.50 173.68,237.75 C174.02,238.71 174.97,240.27 175.77,241.21 C177.71,243.47 176.80,245.54 172.78,247.99 C168.65,250.51 166.36,250.53 165.04,248.07 ZM 406.50 237.08 C405.40,236.64 401.41,235.71 397.64,235.01 C392.36,234.03 390.61,234.01 390.05,234.92 C389.49,235.83 388.35,235.81 385.16,234.81 C379.26,232.97 379.88,230.08 386.00,230.88 C390.64,231.48 395.45,232.37 403.45,234.08 C408.38,235.14 413.78,236.01 415.45,236.02 C417.79,236.03 418.15,236.26 417.00,237.00 C415.22,238.15 409.32,238.20 406.50,237.08 ZM 207.91 215.17 C209.21,212.73 215.43,209.00 218.20,209.00 C219.88,209.00 219.58,209.47 216.61,211.49 C214.60,212.86 211.58,214.68 209.90,215.55 C206.97,217.06 206.90,217.05 207.91,215.17 ZM 334.38 161.55 C334.07,160.75 334.12,159.62 334.47,159.04 C334.83,158.46 334.56,156.43 333.87,154.52 C333.18,152.61 332.86,150.80 333.16,150.50 C333.95,149.72 347.27,148.19 348.69,148.72 C349.34,148.97 349.61,149.85 349.29,150.68 C348.97,151.52 349.34,152.60 350.10,153.09 C351.19,153.77 351.21,153.97 350.19,153.98 C348.49,154.00 349.03,158.13 350.93,159.62 C352.05,160.49 350.94,160.98 345.85,161.87 C337.28,163.36 335.05,163.30 334.38,161.55 Z" fill="rgb(242,113,39)"/>
</g>
</svg>